<?xml version="1.0" encoding="UTF-8" standalone="no"?>
<!DOCTYPE svg PUBLIC "-//W3C//DTD SVG 1.1//EN"
 "http://www.w3.org/Graphics/SVG/1.1/DTD/svg11.dtd">
<!-- Generated by graphviz version 2.40.1 (20161225.0304)
 -->
<!-- Title: Created by: Tarun Sharma (tarun27sh@gmail.com) Pages: 1 -->
<svg width="1469pt" height="102pt"
 viewBox="0.00 0.00 1469.00 101.50" xmlns="http://www.w3.org/2000/svg" xmlns:xlink="http://www.w3.org/1999/xlink">
<g id="graph0" class="graph" transform="scale(1 1) rotate(0) translate(4 97.5)">
<title>Created by: Tarun Sharma (tarun27sh@gmail.com)</title>
<polygon fill="#ffffff" stroke="transparent" points="-4,4 -4,-97.5 1465,-97.5 1465,4 -4,4"/>
<!-- __driDriverGetExtensions_swrast -->
<g id="node1" class="node">
<title>__driDriverGetExtensions_swrast</title>
<path fill="#6495ed" stroke="#000000" d="M1294,-.5C1294,-.5 1449,-.5 1449,-.5 1455,-.5 1461,-6.5 1461,-12.5 1461,-12.5 1461,-24.5 1461,-24.5 1461,-30.5 1455,-36.5 1449,-36.5 1449,-36.5 1294,-36.5 1294,-36.5 1288,-36.5 1282,-30.5 1282,-24.5 1282,-24.5 1282,-12.5 1282,-12.5 1282,-6.5 1288,-.5 1294,-.5"/>
<text text-anchor="middle" x="1371.5" y="-16.6" font-family="Consolas" font-size="8.00" fill="#000000">__driDriverGetExtensions_swrast</text>
</g>
<!-- loader_open_driver -->
<g id="node2" class="node">
<title>loader_open_driver</title>
<path fill="#6495ed" stroke="#000000" d="M1147,-.5C1147,-.5 1234,-.5 1234,-.5 1240,-.5 1246,-6.5 1246,-12.5 1246,-12.5 1246,-24.5 1246,-24.5 1246,-30.5 1240,-36.5 1234,-36.5 1234,-36.5 1147,-36.5 1147,-36.5 1141,-36.5 1135,-30.5 1135,-24.5 1135,-24.5 1135,-12.5 1135,-12.5 1135,-6.5 1141,-.5 1147,-.5"/>
<text text-anchor="middle" x="1190.5" y="-16.6" font-family="Consolas" font-size="8.00" fill="#000000">loader_open_driver</text>
</g>
<!-- loader_open_driver&#45;&gt;__driDriverGetExtensions_swrast -->
<g id="edge1" class="edge">
<title>loader_open_driver&#45;&gt;__driDriverGetExtensions_swrast</title>
<path fill="none" stroke="#000000" d="M1246.2829,-18.5C1254.4205,-18.5 1262.9996,-18.5 1271.6945,-18.5"/>
<polygon fill="#000000" stroke="#000000" points="1271.9352,-22.0001 1281.9352,-18.5 1271.9352,-15.0001 1271.9352,-22.0001"/>
</g>
<!-- driOpenDriver -->
<g id="node3" class="node">
<title>driOpenDriver</title>
<path fill="#6495ed" stroke="#000000" d="M1026,-.5C1026,-.5 1087,-.5 1087,-.5 1093,-.5 1099,-6.5 1099,-12.5 1099,-12.5 1099,-24.5 1099,-24.5 1099,-30.5 1093,-36.5 1087,-36.5 1087,-36.5 1026,-36.5 1026,-36.5 1020,-36.5 1014,-30.5 1014,-24.5 1014,-24.5 1014,-12.5 1014,-12.5 1014,-6.5 1020,-.5 1026,-.5"/>
<text text-anchor="middle" x="1056.5" y="-16.6" font-family="Consolas" font-size="8.00" fill="#000000">driOpenDriver</text>
</g>
<!-- driOpenDriver&#45;&gt;loader_open_driver -->
<g id="edge2" class="edge">
<title>driOpenDriver&#45;&gt;loader_open_driver</title>
<path fill="none" stroke="#000000" d="M1099.2669,-18.5C1107.4145,-18.5 1116.1148,-18.5 1124.7863,-18.5"/>
<polygon fill="#000000" stroke="#000000" points="1124.9178,-22.0001 1134.9178,-18.5 1124.9178,-15.0001 1124.9178,-22.0001"/>
</g>
<!-- driswCreateScreen -->
<g id="node4" class="node">
<title>driswCreateScreen</title>
<path fill="#6495ed" stroke="#000000" d="M884,-.5C884,-.5 966,-.5 966,-.5 972,-.5 978,-6.5 978,-12.5 978,-12.5 978,-24.5 978,-24.5 978,-30.5 972,-36.5 966,-36.5 966,-36.5 884,-36.5 884,-36.5 878,-36.5 872,-30.5 872,-24.5 872,-24.5 872,-12.5 872,-12.5 872,-6.5 878,-.5 884,-.5"/>
<text text-anchor="middle" x="925" y="-16.6" font-family="Consolas" font-size="8.00" fill="#000000">driswCreateScreen</text>
</g>
<!-- driswCreateScreen&#45;&gt;driOpenDriver -->
<g id="edge3" class="edge">
<title>driswCreateScreen&#45;&gt;driOpenDriver</title>
<path fill="none" stroke="#000000" d="M978.107,-18.5C986.5194,-18.5 995.2186,-18.5 1003.6256,-18.5"/>
<polygon fill="#000000" stroke="#000000" points="1003.6964,-22.0001 1013.6964,-18.5 1003.6964,-15.0001 1003.6964,-22.0001"/>
</g>
<!-- AllocAndFetchScreenConfigs -->
<g id="node5" class="node">
<title>AllocAndFetchScreenConfigs</title>
<path fill="#6495ed" stroke="#000000" d="M695,-.5C695,-.5 824,-.5 824,-.5 830,-.5 836,-6.5 836,-12.5 836,-12.5 836,-24.5 836,-24.5 836,-30.5 830,-36.5 824,-36.5 824,-36.5 695,-36.5 695,-36.5 689,-36.5 683,-30.5 683,-24.5 683,-24.5 683,-12.5 683,-12.5 683,-6.5 689,-.5 695,-.5"/>
<text text-anchor="middle" x="759.5" y="-16.6" font-family="Consolas" font-size="8.00" fill="#000000">AllocAndFetchScreenConfigs</text>
</g>
<!-- AllocAndFetchScreenConfigs&#45;&gt;driswCreateScreen -->
<g id="edge4" class="edge">
<title>AllocAndFetchScreenConfigs&#45;&gt;driswCreateScreen</title>
<path fill="none" stroke="#000000" d="M836.4359,-18.5C844.864,-18.5 853.3729,-18.5 861.6106,-18.5"/>
<polygon fill="#000000" stroke="#000000" points="861.8735,-22.0001 871.8735,-18.5 861.8735,-15.0001 861.8735,-22.0001"/>
</g>
<!-- __glXInitialize -->
<g id="node6" class="node">
<title>__glXInitialize</title>
<path fill="#6495ed" stroke="#000000" d="M564,-.5C564,-.5 635,-.5 635,-.5 641,-.5 647,-6.5 647,-12.5 647,-12.5 647,-24.5 647,-24.5 647,-30.5 641,-36.5 635,-36.5 635,-36.5 564,-36.5 564,-36.5 558,-36.5 552,-30.5 552,-24.5 552,-24.5 552,-12.5 552,-12.5 552,-6.5 558,-.5 564,-.5"/>
<text text-anchor="middle" x="599.5" y="-16.6" font-family="Consolas" font-size="8.00" fill="#000000">__glXInitialize</text>
</g>
<!-- __glXInitialize&#45;&gt;AllocAndFetchScreenConfigs -->
<g id="edge5" class="edge">
<title>__glXInitialize&#45;&gt;AllocAndFetchScreenConfigs</title>
<path fill="none" stroke="#000000" d="M647.0721,-18.5C655.1495,-18.5 663.7579,-18.5 672.4785,-18.5"/>
<polygon fill="#000000" stroke="#000000" points="672.742,-22.0001 682.742,-18.5 672.742,-15.0001 672.742,-22.0001"/>
</g>
<!-- __glXInitialize&#45;&gt;__glXInitialize -->
<g id="edge6" class="edge">
<title>__glXInitialize&#45;&gt;__glXInitialize</title>
<path fill="none" stroke="#000000" d="M572.895,-36.5287C568.3738,-46.1943 577.2422,-55 599.5,-55 613.4111,-55 622.092,-51.5603 625.5426,-46.6207"/>
<polygon fill="#000000" stroke="#000000" points="629.0431,-46.708 626.105,-36.5287 622.0539,-46.3184 629.0431,-46.708"/>
</g>
<!-- GetGLXPrivScreenConfig -->
<g id="node7" class="node">
<title>GetGLXPrivScreenConfig</title>
<path fill="#6495ed" stroke="#000000" d="M396,-.5C396,-.5 504,-.5 504,-.5 510,-.5 516,-6.5 516,-12.5 516,-12.5 516,-24.5 516,-24.5 516,-30.5 510,-36.5 504,-36.5 504,-36.5 396,-36.5 396,-36.5 390,-36.5 384,-30.5 384,-24.5 384,-24.5 384,-12.5 384,-12.5 384,-6.5 390,-.5 396,-.5"/>
<text text-anchor="middle" x="450" y="-16.6" font-family="Consolas" font-size="8.00" fill="#000000">GetGLXPrivScreenConfig</text>
</g>
<!-- GetGLXPrivScreenConfig&#45;&gt;__glXInitialize -->
<g id="edge7" class="edge">
<title>GetGLXPrivScreenConfig&#45;&gt;__glXInitialize</title>
<path fill="none" stroke="#000000" d="M516.0081,-18.5C524.572,-18.5 533.2911,-18.5 541.7075,-18.5"/>
<polygon fill="#000000" stroke="#000000" points="541.7927,-22.0001 551.7927,-18.5 541.7926,-15.0001 541.7927,-22.0001"/>
</g>
<!-- glXChooseVisual -->
<g id="node8" class="node">
<title>glXChooseVisual</title>
<path fill="#6495ed" stroke="#000000" d="M265,-.5C265,-.5 336,-.5 336,-.5 342,-.5 348,-6.5 348,-12.5 348,-12.5 348,-24.5 348,-24.5 348,-30.5 342,-36.5 336,-36.5 336,-36.5 265,-36.5 265,-36.5 259,-36.5 253,-30.5 253,-24.5 253,-24.5 253,-12.5 253,-12.5 253,-6.5 259,-.5 265,-.5"/>
<text text-anchor="middle" x="300.5" y="-16.6" font-family="Consolas" font-size="8.00" fill="#000000">glXChooseVisual</text>
</g>
<!-- glXChooseVisual&#45;&gt;GetGLXPrivScreenConfig -->
<g id="edge8" class="edge">
<title>glXChooseVisual&#45;&gt;GetGLXPrivScreenConfig</title>
<path fill="none" stroke="#000000" d="M348.2138,-18.5C356.3826,-18.5 365.0493,-18.5 373.7431,-18.5"/>
<polygon fill="#000000" stroke="#000000" points="373.9333,-22.0001 383.9333,-18.5 373.9332,-15.0001 373.9333,-22.0001"/>
</g>
<!-- make_window -->
<g id="node9" class="node">
<title>make_window</title>
<path fill="#6495ed" stroke="#000000" d="M155,-.5C155,-.5 205,-.5 205,-.5 211,-.5 217,-6.5 217,-12.5 217,-12.5 217,-24.5 217,-24.5 217,-30.5 211,-36.5 205,-36.5 205,-36.5 155,-36.5 155,-36.5 149,-36.5 143,-30.5 143,-24.5 143,-24.5 143,-12.5 143,-12.5 143,-6.5 149,-.5 155,-.5"/>
<text text-anchor="middle" x="180" y="-16.6" font-family="Consolas" font-size="8.00" fill="#000000">make_window</text>
</g>
<!-- make_window&#45;&gt;glXChooseVisual -->
<g id="edge9" class="edge">
<title>make_window&#45;&gt;glXChooseVisual</title>
<path fill="none" stroke="#000000" d="M217.1372,-18.5C225.1891,-18.5 233.8901,-18.5 242.5286,-18.5"/>
<polygon fill="#000000" stroke="#000000" points="242.598,-22.0001 252.598,-18.5 242.5979,-15.0001 242.598,-22.0001"/>
</g>
<!-- main -->
<g id="node10" class="node">
<title>main</title>
<path fill="#6495ed" stroke="#000000" d="M38.5,-.5C38.5,-.5 68.5,-.5 68.5,-.5 74.5,-.5 80.5,-6.5 80.5,-12.5 80.5,-12.5 80.5,-24.5 80.5,-24.5 80.5,-30.5 74.5,-36.5 68.5,-36.5 68.5,-36.5 38.5,-36.5 38.5,-36.5 32.5,-36.5 26.5,-30.5 26.5,-24.5 26.5,-24.5 26.5,-12.5 26.5,-12.5 26.5,-6.5 32.5,-.5 38.5,-.5"/>
<text text-anchor="middle" x="53.5" y="-16.6" font-family="Consolas" font-size="8.00" fill="#000000">main</text>
</g>
<!-- main&#45;&gt;make_window -->
<g id="edge10" class="edge">
<title>main&#45;&gt;make_window</title>
<path fill="none" stroke="#000000" d="M80.6374,-18.5C95.8091,-18.5 115.1498,-18.5 132.7284,-18.5"/>
<polygon fill="#000000" stroke="#000000" points="132.83,-22.0001 142.83,-18.5 132.8299,-15.0001 132.83,-22.0001"/>
</g>
<g id="node11" class="node">
<title></title>
<polygon fill="#ffd700" stroke="#000000" points="107,-93.5 0,-93.5 0,-55.5 107,-55.5 107,-93.5"/>
<text text-anchor="middle" x="53.5" y="-78.3" font-family="Consolas" font-size="14.00" fill="#000000">Nodes = 10</text>
<text text-anchor="middle" x="53.5" y="-63.3" font-family="Consolas" font-size="14.00" fill="#000000"> Edges = 10</text>
</g>
</g>
</svg>
