<?xml version="1.0" encoding="UTF-8" standalone="no"?>
<!DOCTYPE svg PUBLIC "-//W3C//DTD SVG 1.1//EN"
 "http://www.w3.org/Graphics/SVG/1.1/DTD/svg11.dtd">
<!-- Generated by graphviz version 2.43.0 (0)
 -->
<!-- Title: G Pages: 1 -->
<svg width="372pt" height="436pt"
 viewBox="0.00 0.00 372.00 436.00" xmlns="http://www.w3.org/2000/svg" xmlns:xlink="http://www.w3.org/1999/xlink">
<g id="graph0" class="graph" transform="scale(1 1) rotate(0) translate(4 432)">
<title>G</title>
<polygon fill="white" stroke="transparent" points="-4,4 -4,-432 368,-432 368,4 -4,4"/>
<g id="clust3" class="cluster">
<title>cluster_elf</title>
<polygon fill="none" stroke="lightgrey" stroke-dasharray="5,2" points="8,-189 8,-264 78,-264 78,-189 8,-189"/>
<text text-anchor="middle" x="43" y="-248.8" font-family="Times,serif" font-size="14.00" fill="blue">ELF</text>
</g>
<g id="clust6" class="cluster">
<title>cluster_dso</title>
<polygon fill="none" stroke="lightgrey" stroke-dasharray="5,2" points="17,-81 17,-156 125,-156 125,-81 17,-81"/>
<text text-anchor="middle" x="71" y="-140.8" font-family="Times,serif" font-size="14.00" fill="blue">DSO&#39;s</text>
</g>
<!-- shell -->
<g id="node1" class="node">
<title>shell</title>
<text text-anchor="middle" x="107" y="-406.3" font-family="Times,serif" font-size="14.00">shell</text>
</g>
<!-- execve -->
<g id="node2" class="node">
<title>execve</title>
<text text-anchor="middle" x="107" y="-319.3" font-family="Times,serif" font-size="14.00">execve</text>
</g>
<!-- shell&#45;&gt;execve -->
<g id="edge1" class="edge">
<title>shell&#45;&gt;execve</title>
<path fill="none" stroke="black" d="M107,-391.8C107,-380.16 107,-364.55 107,-351.24"/>
<polygon fill="black" stroke="black" points="110.5,-351.18 107,-341.18 103.5,-351.18 110.5,-351.18"/>
<text text-anchor="middle" x="147.5" y="-362.8" font-family="Times,serif" font-size="14.00">system call</text>
</g>
<!-- Executable -->
<g id="node3" class="node">
<title>Executable</title>
<polygon fill="none" stroke="blue" points="70,-233 16,-233 16,-197 70,-197 70,-233"/>
<text text-anchor="middle" x="43" y="-211.3" font-family="Times,serif" font-size="14.00" fill="blue">a.out</text>
</g>
<!-- execve&#45;&gt;Executable -->
<g id="edge2" class="edge">
<title>execve&#45;&gt;Executable</title>
<path fill="none" stroke="black" d="M74.47,-311.76C62.78,-306.34 50.81,-298.38 44,-287 36.24,-274.02 35.69,-257.16 37.22,-243.14"/>
<polygon fill="black" stroke="black" points="40.71,-243.48 38.71,-233.07 33.78,-242.45 40.71,-243.48"/>
<text text-anchor="middle" x="96.5" y="-275.8" font-family="Times,serif" font-size="14.00">ELF::PT_LOAD</text>
</g>
<!-- Interpreter -->
<g id="node4" class="node">
<title>Interpreter</title>
<polygon fill="none" stroke="black" points="249,-233 93,-233 93,-197 249,-197 249,-233"/>
<text text-anchor="middle" x="171" y="-211.3" font-family="Times,serif" font-size="14.00">ld&#45;linux&#45;x86&#45;64.so.2</text>
</g>
<!-- execve&#45;&gt;Interpreter -->
<g id="edge3" class="edge">
<title>execve&#45;&gt;Interpreter</title>
<path fill="none" stroke="black" d="M132.41,-304.81C138.53,-299.68 144.58,-293.63 149,-287 157.73,-273.91 163.14,-257.19 166.4,-243.26"/>
<polygon fill="black" stroke="black" points="169.87,-243.76 168.5,-233.26 163.02,-242.32 169.87,-243.76"/>
<text text-anchor="middle" x="217.5" y="-275.8" font-family="Times,serif" font-size="14.00">ELF::PT_INTERP</text>
</g>
<!-- dso_1 -->
<g id="node5" class="node">
<title>dso_1</title>
<polygon fill="none" stroke="blue" points="117.5,-125 24.5,-125 24.5,-89 117.5,-89 117.5,-125"/>
<text text-anchor="middle" x="71" y="-103.3" font-family="Times,serif" font-size="14.00" fill="blue">libxxx.so.1</text>
</g>
<!-- Interpreter&#45;&gt;dso_1 -->
<g id="edge6" class="edge">
<title>Interpreter&#45;&gt;dso_1</title>
<path fill="none" stroke="black" d="M111.66,-196.95C90.47,-190.28 71.02,-183.22 68,-179 59.04,-166.49 59.52,-149.32 62.37,-134.99"/>
<polygon fill="black" stroke="black" points="65.8,-135.72 64.77,-125.17 59,-134.06 65.8,-135.72"/>
<text text-anchor="middle" x="133.5" y="-167.8" font-family="Times,serif" font-size="14.00">ELF::DT_NEEDED</text>
</g>
<!-- _dl_start_user() -->
<g id="node7" class="node">
<title>_dl_start_user()</title>
<ellipse fill="none" stroke="black" cx="218" cy="-107" rx="82.59" ry="18"/>
<text text-anchor="middle" x="218" y="-103.3" font-family="Times,serif" font-size="14.00">_dl_start_user()</text>
</g>
<!-- Interpreter&#45;&gt;_dl_start_user() -->
<g id="edge4" class="edge">
<title>Interpreter&#45;&gt;_dl_start_user()</title>
<path fill="none" stroke="black" d="M189.98,-196.89C194.87,-191.59 199.69,-185.45 203,-179 209.9,-165.56 213.63,-149.13 215.64,-135.46"/>
<polygon fill="black" stroke="black" points="219.16,-135.55 216.92,-125.2 212.21,-134.69 219.16,-135.55"/>
</g>
<!-- user_ctor -->
<g id="node6" class="node">
<title>user_ctor</title>
<polygon fill="none" stroke="blue" points="364,-38 72,-38 72,0 364,0 364,-38"/>
<text text-anchor="middle" x="218" y="-22.8" font-family="Times,serif" font-size="14.00" fill="blue">user&#45;defined</text>
<text text-anchor="middle" x="218" y="-7.8" font-family="Times,serif" font-size="14.00" fill="blue">__attribute__((constructor(PRIORITY)))</text>
</g>
<!-- _dl_start_user()&#45;&gt;user_ctor -->
<g id="edge5" class="edge">
<title>_dl_start_user()&#45;&gt;user_ctor</title>
<path fill="none" stroke="black" d="M218,-88.6C218,-77.06 218,-61.65 218,-48.36"/>
<polygon fill="black" stroke="black" points="221.5,-48.27 218,-38.27 214.5,-48.27 221.5,-48.27"/>
<text text-anchor="middle" x="251.5" y="-59.8" font-family="Times,serif" font-size="14.00">call_init()</text>
</g>
</g>
</svg>
