<?xml version="1.0" encoding="UTF-8" standalone="no"?>
<!DOCTYPE svg PUBLIC "-//W3C//DTD SVG 1.1//EN"
 "http://www.w3.org/Graphics/SVG/1.1/DTD/svg11.dtd">
<!-- Generated by graphviz version 2.43.0 (0)
 -->
<!-- Title: G Pages: 1 -->
<svg width="286pt" height="349pt"
 viewBox="0.00 0.00 286.00 349.00" xmlns="http://www.w3.org/2000/svg" xmlns:xlink="http://www.w3.org/1999/xlink">
<g id="graph0" class="graph" transform="scale(1 1) rotate(0) translate(4 345)">
<title>G</title>
<polygon fill="white" stroke="transparent" points="-4,4 -4,-345 282,-345 282,4 -4,4"/>
<g id="clust3" class="cluster">
<title>cluster_elf</title>
<polygon fill="none" stroke="lightgrey" stroke-dasharray="5,2" points="8,-102 8,-177 78,-177 78,-102 8,-102"/>
<text text-anchor="middle" x="43" y="-161.8" font-family="Times,serif" font-size="14.00" fill="blue">ELF</text>
</g>
<g id="clust6" class="cluster">
<title>cluster_dso</title>
<polygon fill="none" stroke="lightgrey" stroke-dasharray="5,2" points="117,-8 117,-83 225,-83 225,-8 117,-8"/>
<text text-anchor="middle" x="171" y="-67.8" font-family="Times,serif" font-size="14.00" fill="blue">DSO&#39;s</text>
</g>
<!-- shell -->
<g id="node1" class="node">
<title>shell</title>
<text text-anchor="middle" x="107" y="-319.3" font-family="Times,serif" font-size="14.00">shell</text>
</g>
<!-- execve -->
<g id="node2" class="node">
<title>execve</title>
<text text-anchor="middle" x="107" y="-232.3" font-family="Times,serif" font-size="14.00">execve</text>
</g>
<!-- shell&#45;&gt;execve -->
<g id="edge1" class="edge">
<title>shell&#45;&gt;execve</title>
<path fill="none" stroke="black" d="M107,-304.8C107,-293.16 107,-277.55 107,-264.24"/>
<polygon fill="black" stroke="black" points="110.5,-264.18 107,-254.18 103.5,-264.18 110.5,-264.18"/>
<text text-anchor="middle" x="147.5" y="-275.8" font-family="Times,serif" font-size="14.00">system call</text>
</g>
<!-- Executable -->
<g id="node3" class="node">
<title>Executable</title>
<polygon fill="none" stroke="blue" points="70,-146 16,-146 16,-110 70,-110 70,-146"/>
<text text-anchor="middle" x="43" y="-124.3" font-family="Times,serif" font-size="14.00" fill="blue">a.out</text>
</g>
<!-- execve&#45;&gt;Executable -->
<g id="edge2" class="edge">
<title>execve&#45;&gt;Executable</title>
<path fill="none" stroke="black" d="M74.47,-224.76C62.78,-219.34 50.81,-211.38 44,-200 36.24,-187.02 35.69,-170.16 37.22,-156.14"/>
<polygon fill="black" stroke="black" points="40.71,-156.48 38.71,-146.07 33.78,-155.45 40.71,-156.48"/>
<text text-anchor="middle" x="96.5" y="-188.8" font-family="Times,serif" font-size="14.00">ELF::PT_LOAD</text>
</g>
<!-- Interpreter -->
<g id="node4" class="node">
<title>Interpreter</title>
<polygon fill="none" stroke="black" points="249,-146 93,-146 93,-110 249,-110 249,-146"/>
<text text-anchor="middle" x="171" y="-124.3" font-family="Times,serif" font-size="14.00">ld&#45;linux&#45;x86&#45;64.so.2</text>
</g>
<!-- execve&#45;&gt;Interpreter -->
<g id="edge3" class="edge">
<title>execve&#45;&gt;Interpreter</title>
<path fill="none" stroke="black" d="M132.41,-217.81C138.53,-212.68 144.58,-206.63 149,-200 157.73,-186.91 163.14,-170.19 166.4,-156.26"/>
<polygon fill="black" stroke="black" points="169.87,-156.76 168.5,-146.26 163.02,-155.32 169.87,-156.76"/>
<text text-anchor="middle" x="217.5" y="-188.8" font-family="Times,serif" font-size="14.00">ELF::PT_INTERP</text>
</g>
<!-- dso_1 -->
<g id="node5" class="node">
<title>dso_1</title>
<polygon fill="none" stroke="blue" points="217.5,-52 124.5,-52 124.5,-16 217.5,-16 217.5,-52"/>
<text text-anchor="middle" x="171" y="-30.3" font-family="Times,serif" font-size="14.00" fill="blue">libxxx.so.1</text>
</g>
<!-- Interpreter&#45;&gt;dso_1 -->
<g id="edge4" class="edge">
<title>Interpreter&#45;&gt;dso_1</title>
<path fill="none" stroke="black" d="M171,-109.7C171,-96.46 171,-77.95 171,-62.66"/>
<polygon fill="black" stroke="black" points="174.5,-62.23 171,-52.23 167.5,-62.23 174.5,-62.23"/>
</g>
</g>
</svg>
