<?xml version="1.0" encoding="UTF-8" standalone="no"?>
<!DOCTYPE svg PUBLIC "-//W3C//DTD SVG 1.1//EN"
 "http://www.w3.org/Graphics/SVG/1.1/DTD/svg11.dtd">
<!-- Generated by graphviz version 2.43.0 (0)
 -->
<!-- Title: G Pages: 1 -->
<svg width="404pt" height="484pt"
 viewBox="0.00 0.00 404.00 484.00" xmlns="http://www.w3.org/2000/svg" xmlns:xlink="http://www.w3.org/1999/xlink">
<g id="graph0" class="graph" transform="scale(1 1) rotate(0) translate(4 480)">
<title>G</title>
<polygon fill="white" stroke="transparent" points="-4,4 -4,-480 400,-480 400,4 -4,4"/>
<g id="clust3" class="cluster">
<title>cluster_elf</title>
<polygon fill="none" stroke="lightgrey" stroke-dasharray="5,2" points="8,-187 8,-312 160,-312 160,-187 8,-187"/>
<text text-anchor="middle" x="84" y="-296.8" font-family="Times,serif" font-size="14.00" fill="blue">ELF</text>
</g>
<g id="clust4" class="cluster">
<title>cluster_aout</title>
<polygon fill="lightgrey" stroke="lightgrey" points="16,-195 16,-281 152,-281 152,-195 16,-195"/>
<text text-anchor="middle" x="84" y="-265.8" font-family="Times,serif" font-size="14.00" fill="blue">a.out</text>
</g>
<g id="clust7" class="cluster">
<title>cluster_dso</title>
<polygon fill="none" stroke="lightgrey" stroke-dasharray="5,2" points="49,-81 49,-156 157,-156 157,-81 49,-81"/>
<text text-anchor="middle" x="103" y="-140.8" font-family="Times,serif" font-size="14.00" fill="blue">DSO&#39;s</text>
</g>
<!-- shell -->
<g id="node1" class="node">
<title>shell</title>
<text text-anchor="middle" x="165" y="-454.3" font-family="Times,serif" font-size="14.00">shell</text>
</g>
<!-- execve -->
<g id="node2" class="node">
<title>execve</title>
<text text-anchor="middle" x="165" y="-367.3" font-family="Times,serif" font-size="14.00">execve</text>
</g>
<!-- shell&#45;&gt;execve -->
<g id="edge1" class="edge">
<title>shell&#45;&gt;execve</title>
<path fill="none" stroke="black" d="M165,-439.8C165,-428.16 165,-412.55 165,-399.24"/>
<polygon fill="black" stroke="black" points="168.5,-399.18 165,-389.18 161.5,-399.18 168.5,-399.18"/>
<text text-anchor="middle" x="205.5" y="-410.8" font-family="Times,serif" font-size="14.00">system call</text>
</g>
<!-- obj -->
<g id="node3" class="node">
<title>obj</title>
<polygon fill="none" stroke="blue" points="24.5,-203.5 24.5,-249.5 143.5,-249.5 143.5,-203.5 24.5,-203.5"/>
<text text-anchor="middle" x="84" y="-234.3" font-family="Times,serif" font-size="14.00" fill="blue">crt1.o::_start()</text>
<polyline fill="none" stroke="blue" points="24.5,-226.5 143.5,-226.5 "/>
<text text-anchor="middle" x="84" y="-211.3" font-family="Times,serif" font-size="14.00" fill="blue">a.o::main()</text>
</g>
<!-- execve&#45;&gt;obj -->
<g id="edge2" class="edge">
<title>execve&#45;&gt;obj</title>
<path fill="none" stroke="black" d="M132.23,-354.85C123.91,-349.62 115.73,-343.01 110,-335 94.29,-313.02 87.99,-282.72 85.51,-259.9"/>
<polygon fill="black" stroke="black" points="88.97,-259.32 84.59,-249.67 82,-259.95 88.97,-259.32"/>
<text text-anchor="middle" x="162.5" y="-323.8" font-family="Times,serif" font-size="14.00">ELF::PT_LOAD</text>
</g>
<!-- Interpreter -->
<g id="node4" class="node">
<title>Interpreter</title>
<polygon fill="none" stroke="black" points="324,-244.5 168,-244.5 168,-208.5 324,-208.5 324,-244.5"/>
<text text-anchor="middle" x="246" y="-222.8" font-family="Times,serif" font-size="14.00">ld&#45;linux&#45;x86&#45;64.so.2</text>
</g>
<!-- execve&#45;&gt;Interpreter -->
<g id="edge3" class="edge">
<title>execve&#45;&gt;Interpreter</title>
<path fill="none" stroke="black" d="M196.42,-352.9C203.34,-347.9 210.07,-341.9 215,-335 232.06,-311.12 239.78,-277.99 243.24,-254.84"/>
<polygon fill="black" stroke="black" points="246.75,-255.04 244.59,-244.67 239.81,-254.12 246.75,-255.04"/>
<text text-anchor="middle" x="282.5" y="-323.8" font-family="Times,serif" font-size="14.00">ELF::PT_INTERP</text>
</g>
<!-- dso_1 -->
<g id="node5" class="node">
<title>dso_1</title>
<polygon fill="none" stroke="blue" points="149.5,-125 56.5,-125 56.5,-89 149.5,-89 149.5,-125"/>
<text text-anchor="middle" x="103" y="-103.3" font-family="Times,serif" font-size="14.00" fill="blue">libxxx.so.1</text>
</g>
<!-- Interpreter&#45;&gt;dso_1 -->
<g id="edge6" class="edge">
<title>Interpreter&#45;&gt;dso_1</title>
<path fill="none" stroke="black" d="M211.2,-208.45C194.78,-200.97 174.72,-192.63 156,-187 136.97,-181.28 125.67,-193.43 112,-179 101.2,-167.61 98.87,-150.17 99.28,-135.42"/>
<polygon fill="black" stroke="black" points="102.78,-135.51 99.98,-125.29 95.8,-135.02 102.78,-135.51"/>
<text text-anchor="middle" x="177.5" y="-167.8" font-family="Times,serif" font-size="14.00">ELF::DT_NEEDED</text>
</g>
<!-- _dl_start_user() -->
<g id="node7" class="node">
<title>_dl_start_user()</title>
<ellipse fill="none" stroke="black" cx="250" cy="-107" rx="82.59" ry="18"/>
<text text-anchor="middle" x="250" y="-103.3" font-family="Times,serif" font-size="14.00">_dl_start_user()</text>
</g>
<!-- Interpreter&#45;&gt;_dl_start_user() -->
<g id="edge4" class="edge">
<title>Interpreter&#45;&gt;_dl_start_user()</title>
<path fill="none" stroke="black" d="M246.58,-208.41C247.23,-189.27 248.3,-157.96 249.07,-135.39"/>
<polygon fill="black" stroke="black" points="252.58,-135.22 249.42,-125.11 245.58,-134.98 252.58,-135.22"/>
</g>
<!-- user_ctor -->
<g id="node6" class="node">
<title>user_ctor</title>
<polygon fill="none" stroke="blue" points="396,-38 104,-38 104,0 396,0 396,-38"/>
<text text-anchor="middle" x="250" y="-22.8" font-family="Times,serif" font-size="14.00" fill="blue">user&#45;defined</text>
<text text-anchor="middle" x="250" y="-7.8" font-family="Times,serif" font-size="14.00" fill="blue">__attribute__((constructor(PRIORITY)))</text>
</g>
<!-- _dl_start_user()&#45;&gt;user_ctor -->
<g id="edge5" class="edge">
<title>_dl_start_user()&#45;&gt;user_ctor</title>
<path fill="none" stroke="black" d="M250,-88.6C250,-77.06 250,-61.65 250,-48.36"/>
<polygon fill="black" stroke="black" points="253.5,-48.27 250,-38.27 246.5,-48.27 253.5,-48.27"/>
<text text-anchor="middle" x="283.5" y="-59.8" font-family="Times,serif" font-size="14.00">call_init()</text>
</g>
</g>
</svg>
