<?xml version="1.0" encoding="UTF-8" standalone="no"?>
<!DOCTYPE svg PUBLIC "-//W3C//DTD SVG 1.1//EN"
 "http://www.w3.org/Graphics/SVG/1.1/DTD/svg11.dtd">
<!-- Generated by graphviz version 2.43.0 (0)
 -->
<!-- Title: G Pages: 1 -->
<svg width="372pt" height="422pt"
 viewBox="0.00 0.00 371.50 422.00" xmlns="http://www.w3.org/2000/svg" xmlns:xlink="http://www.w3.org/1999/xlink">
<g id="graph0" class="graph" transform="scale(1 1) rotate(0) translate(4 418)">
<title>G</title>
<polygon fill="white" stroke="transparent" points="-4,4 -4,-418 367.5,-418 367.5,4 -4,4"/>
<g id="clust3" class="cluster">
<title>cluster_elf</title>
<polygon fill="none" stroke="lightgrey" stroke-dasharray="5,2" points="8,-175 8,-250 78,-250 78,-175 8,-175"/>
<text text-anchor="middle" x="43" y="-234.8" font-family="Times,serif" font-size="14.00" fill="blue">ELF</text>
</g>
<g id="clust6" class="cluster">
<title>cluster_dso</title>
<polygon fill="none" stroke="lightgrey" stroke-dasharray="5,2" points="52,-81 52,-156 160,-156 160,-81 52,-81"/>
<text text-anchor="middle" x="106" y="-140.8" font-family="Times,serif" font-size="14.00" fill="blue">DSO&#39;s</text>
</g>
<!-- shell -->
<g id="node1" class="node">
<title>shell</title>
<text text-anchor="middle" x="107" y="-392.3" font-family="Times,serif" font-size="14.00">shell</text>
</g>
<!-- execve -->
<g id="node2" class="node">
<title>execve</title>
<text text-anchor="middle" x="107" y="-305.3" font-family="Times,serif" font-size="14.00">execve</text>
</g>
<!-- shell&#45;&gt;execve -->
<g id="edge1" class="edge">
<title>shell&#45;&gt;execve</title>
<path fill="none" stroke="black" d="M107,-377.8C107,-366.16 107,-350.55 107,-337.24"/>
<polygon fill="black" stroke="black" points="110.5,-337.18 107,-327.18 103.5,-337.18 110.5,-337.18"/>
<text text-anchor="middle" x="147.5" y="-348.8" font-family="Times,serif" font-size="14.00">system call</text>
</g>
<!-- Executable -->
<g id="node3" class="node">
<title>Executable</title>
<polygon fill="none" stroke="blue" points="70,-219 16,-219 16,-183 70,-183 70,-219"/>
<text text-anchor="middle" x="43" y="-197.3" font-family="Times,serif" font-size="14.00" fill="blue">a.out</text>
</g>
<!-- execve&#45;&gt;Executable -->
<g id="edge2" class="edge">
<title>execve&#45;&gt;Executable</title>
<path fill="none" stroke="black" d="M74.47,-297.76C62.78,-292.34 50.81,-284.38 44,-273 36.24,-260.02 35.69,-243.16 37.22,-229.14"/>
<polygon fill="black" stroke="black" points="40.71,-229.48 38.71,-219.07 33.78,-228.45 40.71,-229.48"/>
<text text-anchor="middle" x="96.5" y="-261.8" font-family="Times,serif" font-size="14.00">ELF::PT_LOAD</text>
</g>
<!-- Interpreter -->
<g id="node4" class="node">
<title>Interpreter</title>
<polygon fill="none" stroke="black" points="249,-219 93,-219 93,-183 249,-183 249,-219"/>
<text text-anchor="middle" x="171" y="-197.3" font-family="Times,serif" font-size="14.00">ld&#45;linux&#45;x86&#45;64.so.2</text>
</g>
<!-- execve&#45;&gt;Interpreter -->
<g id="edge3" class="edge">
<title>execve&#45;&gt;Interpreter</title>
<path fill="none" stroke="black" d="M132.41,-290.81C138.53,-285.68 144.58,-279.63 149,-273 157.73,-259.91 163.14,-243.19 166.4,-229.26"/>
<polygon fill="black" stroke="black" points="169.87,-229.76 168.5,-219.26 163.02,-228.32 169.87,-229.76"/>
<text text-anchor="middle" x="216.5" y="-261.8" font-family="Times,serif" font-size="14.00">ELF::PT_INTERP</text>
</g>
<!-- dso_1 -->
<g id="node5" class="node">
<title>dso_1</title>
<polygon fill="none" stroke="blue" points="152.5,-125 59.5,-125 59.5,-89 152.5,-89 152.5,-125"/>
<text text-anchor="middle" x="106" y="-103.3" font-family="Times,serif" font-size="14.00" fill="blue">libxxx.so.1</text>
</g>
<!-- Interpreter&#45;&gt;dso_1 -->
<g id="edge6" class="edge">
<title>Interpreter&#45;&gt;dso_1</title>
<path fill="none" stroke="black" d="M158.77,-182.7C148.97,-168.82 135.06,-149.14 123.99,-133.46"/>
<polygon fill="black" stroke="black" points="126.8,-131.37 118.17,-125.23 121.08,-135.41 126.8,-131.37"/>
</g>
<!-- _dl_start_user() -->
<g id="node7" class="node">
<title>_dl_start_user()</title>
<ellipse fill="none" stroke="black" cx="253" cy="-107" rx="82.59" ry="18"/>
<text text-anchor="middle" x="253" y="-103.3" font-family="Times,serif" font-size="14.00">_dl_start_user()</text>
</g>
<!-- Interpreter&#45;&gt;_dl_start_user() -->
<g id="edge4" class="edge">
<title>Interpreter&#45;&gt;_dl_start_user()</title>
<path fill="none" stroke="black" d="M186.42,-182.7C198.99,-168.6 216.88,-148.52 230.96,-132.73"/>
<polygon fill="black" stroke="black" points="233.88,-134.71 237.92,-124.92 228.66,-130.05 233.88,-134.71"/>
</g>
<!-- user_ctor -->
<g id="node6" class="node">
<title>user_ctor</title>
<polygon fill="none" stroke="blue" points="363.5,-38 142.5,-38 142.5,0 363.5,0 363.5,-38"/>
<text text-anchor="middle" x="253" y="-22.8" font-family="Times,serif" font-size="14.00" fill="blue">user&#45;defined</text>
<text text-anchor="middle" x="253" y="-7.8" font-family="Times,serif" font-size="14.00" fill="blue">__attribute__((constructor()))</text>
</g>
<!-- _dl_start_user()&#45;&gt;user_ctor -->
<g id="edge5" class="edge">
<title>_dl_start_user()&#45;&gt;user_ctor</title>
<path fill="none" stroke="black" d="M253,-88.6C253,-77.06 253,-61.65 253,-48.36"/>
<polygon fill="black" stroke="black" points="256.5,-48.27 253,-38.27 249.5,-48.27 256.5,-48.27"/>
<text text-anchor="middle" x="286.5" y="-59.8" font-family="Times,serif" font-size="14.00">call_init()</text>
</g>
</g>
</svg>
