<?xml version="1.0" encoding="UTF-8" standalone="no"?>
<!DOCTYPE svg PUBLIC "-//W3C//DTD SVG 1.1//EN"
 "http://www.w3.org/Graphics/SVG/1.1/DTD/svg11.dtd">
<!-- Generated by graphviz version 2.43.0 (0)
 -->
<!-- Title: G Pages: 1 -->
<svg width="592pt" height="209pt"
 viewBox="0.00 0.00 592.00 209.00" xmlns="http://www.w3.org/2000/svg" xmlns:xlink="http://www.w3.org/1999/xlink">
<g id="graph0" class="graph" transform="scale(1 1) rotate(0) translate(4 205)">
<title>G</title>
<polygon fill="white" stroke="transparent" points="-4,4 -4,-205 588,-205 588,4 -4,4"/>
<g id="clust1" class="cluster">
<title>cluster_sync_file</title>
<polygon fill="none" stroke="lightgrey" stroke-dasharray="5,2" points="8,-8 8,-193 186,-193 186,-8 8,-8"/>
<text text-anchor="middle" x="97" y="-177.8" font-family="Times,serif" font-size="14.00" fill="red">Sync File</text>
</g>
<g id="clust2" class="cluster">
<title>cluster_dma_buf</title>
<polygon fill="none" stroke="lightgrey" stroke-dasharray="5,2" points="194,-8 194,-193 384,-193 384,-8 194,-8"/>
<text text-anchor="middle" x="289" y="-177.8" font-family="Times,serif" font-size="14.00" fill="green">DMA&#45;BUF</text>
</g>
<g id="clust3" class="cluster">
<title>cluster_sync_obj</title>
<polygon fill="none" stroke="lightgrey" stroke-dasharray="5,2" points="392,-8 392,-193 576,-193 576,-8 392,-8"/>
<text text-anchor="middle" x="484" y="-177.8" font-family="Times,serif" font-size="14.00" fill="blue">Sync Object</text>
</g>
<!-- userspace_1 -->
<g id="node1" class="node">
<title>userspace_1</title>
<text text-anchor="middle" x="97" y="-140.3" font-family="Times,serif" font-size="14.00" fill="red">Userspace</text>
</g>
<!-- kernelspace_1 -->
<g id="node2" class="node">
<title>kernelspace_1</title>
<text text-anchor="middle" x="97" y="-38.8" font-family="Times,serif" font-size="14.00" fill="red">Kernel Space fences</text>
<text text-anchor="middle" x="97" y="-23.8" font-family="Times,serif" font-size="14.00" fill="red">(struct dma_fence)</text>
</g>
<!-- userspace_1&#45;&gt;kernelspace_1 -->
<g id="edge1" class="edge">
<title>userspace_1&#45;&gt;kernelspace_1</title>
<path fill="none" stroke="red" d="M56.34,-125.98C49.39,-121.2 43.1,-115.27 39,-108 31.13,-94.07 31.22,-85.98 39,-72 41.36,-67.76 44.45,-63.95 47.98,-60.55"/>
<polygon fill="red" stroke="red" points="50.26,-63.2 55.73,-54.12 45.8,-57.81 50.26,-63.2"/>
<text text-anchor="middle" x="103" y="-95.2" font-family="Times,serif" font-size="16.00" fill="red">Sync File</text>
<text text-anchor="middle" x="103" y="-77.2" font-family="Times,serif" font-size="16.00" fill="red">(file descriptor)</text>
</g>
<!-- kernelspace_1&#45;&gt;userspace_1 -->
<g id="edge2" class="edge">
<title>kernelspace_1&#45;&gt;userspace_1</title>
<path fill="none" stroke="red" d="M148.72,-54C156,-58.74 162.52,-64.65 167,-72 175.33,-85.66 175.41,-94.39 167,-108 163.12,-114.28 157.74,-119.47 151.66,-123.75"/>
<polygon fill="red" stroke="red" points="149.72,-120.83 143.02,-129.04 153.38,-126.8 149.72,-120.83"/>
</g>
<!-- userspace_2 -->
<g id="node3" class="node">
<title>userspace_2</title>
<text text-anchor="middle" x="289" y="-140.3" font-family="Times,serif" font-size="14.00" fill="green">Userspace</text>
</g>
<!-- kernelspace_2 -->
<g id="node4" class="node">
<title>kernelspace_2</title>
<text text-anchor="middle" x="289" y="-38.8" font-family="Times,serif" font-size="14.00" fill="green">Kernel Space dma&#45;buf</text>
<text text-anchor="middle" x="289" y="-23.8" font-family="Times,serif" font-size="14.00" fill="green">(struct dma_buf)</text>
</g>
<!-- userspace_2&#45;&gt;kernelspace_2 -->
<g id="edge3" class="edge">
<title>userspace_2&#45;&gt;kernelspace_2</title>
<path fill="none" stroke="green" d="M248.34,-125.98C241.39,-121.2 235.1,-115.27 231,-108 223.13,-94.07 223.22,-85.98 231,-72 233.36,-67.76 236.45,-63.95 239.98,-60.55"/>
<polygon fill="green" stroke="green" points="242.26,-63.2 247.73,-54.12 237.8,-57.81 242.26,-63.2"/>
<text text-anchor="middle" x="295" y="-95.2" font-family="Times,serif" font-size="16.00" fill="green">PRIME</text>
<text text-anchor="middle" x="295" y="-77.2" font-family="Times,serif" font-size="16.00" fill="green">(file descriptor)</text>
</g>
<!-- kernelspace_2&#45;&gt;userspace_2 -->
<g id="edge4" class="edge">
<title>kernelspace_2&#45;&gt;userspace_2</title>
<path fill="none" stroke="green" d="M340.72,-54C348,-58.74 354.52,-64.65 359,-72 367.33,-85.66 367.41,-94.39 359,-108 355.12,-114.28 349.74,-119.47 343.66,-123.75"/>
<polygon fill="green" stroke="green" points="341.72,-120.83 335.02,-129.04 345.38,-126.8 341.72,-120.83"/>
</g>
<!-- userspace_3 -->
<g id="node5" class="node">
<title>userspace_3</title>
<text text-anchor="middle" x="484" y="-140.3" font-family="Times,serif" font-size="14.00" fill="blue">Userspace</text>
</g>
<!-- kernelspace_3 -->
<g id="node6" class="node">
<title>kernelspace_3</title>
<text text-anchor="middle" x="484" y="-38.8" font-family="Times,serif" font-size="14.00" fill="blue">Kernel Space syncobj</text>
<text text-anchor="middle" x="484" y="-23.8" font-family="Times,serif" font-size="14.00" fill="blue">(struct drm_syncobj)</text>
</g>
<!-- userspace_3&#45;&gt;kernelspace_3 -->
<g id="edge5" class="edge">
<title>userspace_3&#45;&gt;kernelspace_3</title>
<path fill="none" stroke="blue" d="M443.34,-125.98C436.39,-121.2 430.1,-115.27 426,-108 418.13,-94.07 418.22,-85.98 426,-72 428.36,-67.76 431.45,-63.95 434.98,-60.55"/>
<polygon fill="blue" stroke="blue" points="437.26,-63.2 442.73,-54.12 432.8,-57.81 437.26,-63.2"/>
<text text-anchor="middle" x="490" y="-95.2" font-family="Times,serif" font-size="16.00" fill="blue">SYNCOBJ</text>
<text text-anchor="middle" x="490" y="-77.2" font-family="Times,serif" font-size="16.00" fill="blue">(file descriptor)</text>
</g>
<!-- kernelspace_3&#45;&gt;userspace_3 -->
<g id="edge6" class="edge">
<title>kernelspace_3&#45;&gt;userspace_3</title>
<path fill="none" stroke="blue" d="M535.72,-54C543,-58.74 549.52,-64.65 554,-72 562.33,-85.66 562.41,-94.39 554,-108 550.12,-114.28 544.74,-119.47 538.66,-123.75"/>
<polygon fill="blue" stroke="blue" points="536.72,-120.83 530.02,-129.04 540.38,-126.8 536.72,-120.83"/>
</g>
</g>
</svg>
