<svg xmlns="http://www.w3.org/2000/svg" viewBox="0 0 900 500" width="900" height="500" font-family="'Courier New', monospace">

  <!-- Background -->
  <rect width="900" height="500" fill="#0d1117"/>
  
  <!-- Grid pattern -->
  <defs>
    <pattern id="grid" width="30" height="30" patternUnits="userSpaceOnUse">
      <path d="M 30 0 L 0 0 0 30" fill="none" stroke="#1a2332" stroke-width="0.5"/>
    </pattern>
    <!-- DSI cable gradient -->
    <linearGradient id="dsiCable" x1="0%" y1="0%" x2="100%" y2="0%">
      <stop offset="0%" style="stop-color:#00c8ff;stop-opacity:1"/>
      <stop offset="100%" style="stop-color:#0066cc;stop-opacity:1"/>
    </linearGradient>
    <!-- HDMI cable gradient -->
    <linearGradient id="hdmiCable" x1="0%" y1="0%" x2="100%" y2="0%">
      <stop offset="0%" style="stop-color:#ff6b00;stop-opacity:1"/>
      <stop offset="100%" style="stop-color:#cc3300;stop-opacity:1"/>
    </linearGradient>
    <!-- Board gradient -->
    <linearGradient id="boardGrad" x1="0%" y1="0%" x2="100%" y2="100%">
      <stop offset="0%" style="stop-color:#1a3a2a"/>
      <stop offset="100%" style="stop-color:#0d2218"/>
    </linearGradient>
    <!-- Glow filters -->
    <filter id="glowBlue">
      <feGaussianBlur stdDeviation="3" result="coloredBlur"/>
      <feMerge><feMergeNode in="coloredBlur"/><feMergeNode in="SourceGraphic"/></feMerge>
    </filter>
    <filter id="glowOrange">
      <feGaussianBlur stdDeviation="3" result="coloredBlur"/>
      <feMerge><feMergeNode in="coloredBlur"/><feMergeNode in="SourceGraphic"/></feMerge>
    </filter>
    <filter id="glowGreen">
      <feGaussianBlur stdDeviation="5" result="coloredBlur"/>
      <feMerge><feMergeNode in="coloredBlur"/><feMergeNode in="SourceGraphic"/></feMerge>
    </filter>
  </defs>

  <rect width="900" height="500" fill="url(#grid)"/>

  <!-- Title -->
  <text x="450" y="38" text-anchor="middle" fill="#4ade80" font-size="18" font-weight="bold" letter-spacing="3">HiKey970 DISPLAY CONNECTION DIAGRAM</text>
  <line x1="150" y1="48" x2="750" y2="48" stroke="#4ade80" stroke-width="0.5" opacity="0.4"/>

  <!-- ======== SBC BOARD (center) ======== -->
  <rect x="310" y="150" width="280" height="200" rx="8" fill="url(#boardGrad)" stroke="#2d6a4f" stroke-width="2" filter="url(#glowGreen)"/>
  <!-- PCB trace lines decorative -->
  <line x1="330" y1="170" x2="570" y2="170" stroke="#1a4a30" stroke-width="1"/>
  <line x1="330" y1="180" x2="430" y2="180" stroke="#1a4a30" stroke-width="1"/>
  <line x1="330" y1="330" x2="570" y2="330" stroke="#1a4a30" stroke-width="1"/>
  <line x1="450" y1="190" x2="450" y2="310" stroke="#1a4a30" stroke-width="1" stroke-dasharray="4,4"/>

  <!-- SoC chip -->
  <rect x="375" y="195" width="150" height="110" rx="4" fill="#0a1a10" stroke="#3d8b5c" stroke-width="1.5"/>
  <text x="450" y="238" text-anchor="middle" fill="#4ade80" font-size="11" font-weight="bold">Kirin 970</text>
  <text x="450" y="256" text-anchor="middle" fill="#22c55e" font-size="9">SoC</text>
  <!-- chip pins decorative -->
  <rect x="375" y="200" width="6" height="3" fill="#4ade80" rx="1"/>
  <rect x="375" y="207" width="6" height="3" fill="#4ade80" rx="1"/>
  <rect x="375" y="214" width="6" height="3" fill="#4ade80" rx="1"/>
  <rect x="519" y="200" width="6" height="3" fill="#4ade80" rx="1"/>
  <rect x="519" y="207" width="6" height="3" fill="#4ade80" rx="1"/>
  <rect x="519" y="214" width="6" height="3" fill="#4ade80" rx="1"/>

  <!-- Board label -->
  <text x="450" y="165" text-anchor="middle" fill="#86efac" font-size="13" font-weight="bold" letter-spacing="2">SBC · HiKey970</text>

  <!-- ======== DSI CONNECTOR on board (left side) ======== -->
  <rect x="295" y="220" width="18" height="60" rx="3" fill="#005588" stroke="#00c8ff" stroke-width="1.5" filter="url(#glowBlue)"/>
  <text x="304" y="248" text-anchor="middle" fill="#00c8ff" font-size="7" font-weight="bold" transform="rotate(-90, 304, 248)">DSI</text>
  <!-- connector pins -->
  <rect x="291" y="225" width="5" height="3" fill="#00c8ff" rx="1"/>
  <rect x="291" y="232" width="5" height="3" fill="#00c8ff" rx="1"/>
  <rect x="291" y="239" width="5" height="3" fill="#00c8ff" rx="1"/>
  <rect x="291" y="246" width="5" height="3" fill="#00c8ff" rx="1"/>
  <rect x="291" y="253" width="5" height="3" fill="#00c8ff" rx="1"/>
  <rect x="291" y="260" width="5" height="3" fill="#00c8ff" rx="1"/>
  <rect x="291" y="267" width="5" height="3" fill="#00c8ff" rx="1"/>

  <!-- ======== HDMI CONNECTOR on board (right side) ======== -->
  <rect x="587" y="235" width="18" height="30" rx="3" fill="#663300" stroke="#ff6b00" stroke-width="1.5" filter="url(#glowOrange)"/>
  <text x="596" y="252" text-anchor="middle" fill="#ff6b00" font-size="7" font-weight="bold" transform="rotate(-90, 596, 252)">HDMI</text>
  <!-- connector pins -->
  <rect x="604" y="238" width="5" height="3" fill="#ff6b00" rx="1"/>
  <rect x="604" y="244" width="5" height="3" fill="#ff6b00" rx="1"/>
  <rect x="604" y="250" width="5" height="3" fill="#ff6b00" rx="1"/>
  <rect x="604" y="256" width="5" height="3" fill="#ff6b00" rx="1"/>

  <!-- ======== DSI CABLE (flat FPC ribbon: board left DSI → sweeps down → panel FPC tab at bottom) ======== -->
  <!-- Path: exits board at (291,250), runs left to ~(170,250), curves down to (78,310) FPC entry -->
  <!-- Glow/body -->
  <path d="M 291 250 C 240 250 195 250 170 255 C 140 263 120 285 78 310" stroke="#00c8ff" stroke-width="14" fill="none" opacity="0.13"/>
  <!-- Main ribbon (brightest center line) -->
  <path d="M 291 248 C 240 248 195 248 170 253 C 140 261 120 283 78 308" stroke="#00c8ff" stroke-width="2.8" fill="none" opacity="0.95" filter="url(#glowBlue)"/>
  <!-- Parallel conductor traces -->
  <path d="M 291 244 C 240 244 195 244 170 249 C 140 257 120 279 78 304" stroke="#0099dd" stroke-width="1.2" fill="none" opacity="0.55"/>
  <path d="M 291 252 C 240 252 195 252 170 257 C 140 265 120 287 78 312" stroke="#0099dd" stroke-width="1.2" fill="none" opacity="0.55"/>
  <path d="M 291 256 C 240 256 195 256 170 261 C 140 269 120 291 78 316" stroke="#005f99" stroke-width="1.0" fill="none" opacity="0.35"/>
  <!-- DSI label on cable mid-run -->
  <text x="200" y="240" text-anchor="middle" fill="#00c8ff" font-size="10" font-weight="bold" filter="url(#glowBlue)">DSI</text>
  <text x="200" y="252" text-anchor="middle" fill="#7dd3fc" font-size="8">MIPI · 4-Lane</text>

  <!-- ======== REALISTIC DSI TOUCH PANEL (left) ======== -->

  <!-- Panel PCB backing (depth illusion) -->
  <rect x="22" y="93" width="116" height="222" rx="5" fill="#141a22" stroke="#1e2a38" stroke-width="1"/>

  <!-- Panel outer housing front face -->
  <rect x="20" y="90" width="116" height="222" rx="5" fill="#1a2230" stroke="#2a3a50" stroke-width="1.5"/>

  <!-- Very thin top bezel -->
  <rect x="20" y="90" width="116" height="8" rx="5" fill="#141c28"/>

  <!-- Screen glass nearly edge-to-edge -->
  <rect x="22" y="98" width="112" height="190" rx="2" fill="#050b12"/>

  <!-- Active screen area -->
  <rect x="23" y="99" width="110" height="188" rx="2" fill="#071524"/>

  <!-- Status bar -->
  <rect x="23" y="99" width="110" height="10" fill="#060f1c"/>
  <rect x="26" y="102" width="16" height="4" rx="1" fill="#a0c4e0" opacity="0.7"/>
  <rect x="110" y="102" width="8" height="4" rx="1" fill="#a0c4e0" opacity="0.5"/>
  <rect x="121" y="102" width="8" height="4" rx="1" fill="#a0c4e0" opacity="0.5"/>

  <!-- Hero / banner area -->
  <rect x="23" y="109" width="110" height="42" fill="#0a1e34"/>
  <rect x="23" y="109" width="110" height="42" fill="#0d2a48" opacity="0.6"/>
  <rect x="29" y="116" width="60" height="6" rx="2" fill="#00c8ff" opacity="0.75"/>
  <rect x="29" y="125" width="80" height="4" rx="1" fill="#7dd3fc" opacity="0.45"/>
  <rect x="29" y="132" width="65" height="4" rx="1" fill="#7dd3fc" opacity="0.3"/>
  <circle cx="118" cy="125" r="10" fill="#0d3050" stroke="#00c8ff" stroke-width="1" opacity="0.8"/>
  <circle cx="118" cy="122" r="4" fill="#00c8ff" opacity="0.4"/>
  <rect x="112" y="128" width="12" height="5" rx="2" fill="#00c8ff" opacity="0.3"/>

  <!-- Card row -->
  <rect x="26" y="155" width="48" height="38" rx="3" fill="#0d1f30"/>
  <rect x="29" y="159" width="28" height="4" rx="1" fill="#00c8ff" opacity="0.6"/>
  <rect x="29" y="166" width="38" height="3" rx="1" fill="#5a8ab0" opacity="0.5"/>
  <rect x="29" y="172" width="32" height="3" rx="1" fill="#5a8ab0" opacity="0.4"/>
  <rect x="29" y="179" width="20" height="8" rx="2" fill="#00c8ff" opacity="0.35"/>

  <rect x="79" y="155" width="54" height="38" rx="3" fill="#0d1f30"/>
  <rect x="82" y="159" width="30" height="4" rx="1" fill="#4ade80" opacity="0.55"/>
  <rect x="82" y="166" width="44" height="3" rx="1" fill="#5a8ab0" opacity="0.5"/>
  <rect x="82" y="172" width="36" height="3" rx="1" fill="#5a8ab0" opacity="0.4"/>
  <polyline points="82,184 89,181 96,186 103,179 110,183 117,178 124,180 129,182" stroke="#4ade80" stroke-width="1.2" fill="none" opacity="0.7"/>

  <!-- List items -->
  <rect x="26" y="197" width="107" height="10" rx="2" fill="#0d1f30"/>
  <rect x="29" y="200" width="50" height="3" rx="1" fill="#5a8ab0" opacity="0.55"/>
  <rect x="120" y="200" width="10" height="3" rx="1" fill="#00c8ff" opacity="0.4"/>
  <rect x="26" y="210" width="107" height="10" rx="2" fill="#0d1f30"/>
  <rect x="29" y="213" width="65" height="3" rx="1" fill="#5a8ab0" opacity="0.5"/>
  <rect x="120" y="213" width="10" height="3" rx="1" fill="#4ade80" opacity="0.4"/>
  <rect x="26" y="223" width="107" height="10" rx="2" fill="#0d1f30"/>
  <rect x="29" y="226" width="44" height="3" rx="1" fill="#5a8ab0" opacity="0.45"/>
  <rect x="120" y="226" width="10" height="3" rx="1" fill="#00c8ff" opacity="0.4"/>

  <!-- Bottom nav bar -->
  <rect x="23" y="237" width="110" height="22" fill="#060f1c"/>
  <rect x="23" y="237" width="110" height="1" fill="#1a3050" opacity="0.8"/>
  <rect x="30" y="243" width="14" height="10" rx="2" fill="#1a3a5a" opacity="0.7"/>
  <rect x="54" y="243" width="14" height="10" rx="2" fill="#00c8ff" opacity="0.45"/>
  <rect x="78" y="243" width="14" height="10" rx="2" fill="#1a3a5a" opacity="0.7"/>
  <rect x="102" y="243" width="14" height="10" rx="2" fill="#1a3a5a" opacity="0.7"/>
  <!-- Home indicator bar -->
  <rect x="57" y="281" width="42" height="3" rx="2" fill="#3a5a7a" opacity="0.6"/>

  <!-- Subtle glass glare -->
  <rect x="24" y="100" width="55" height="1.5" rx="1" fill="white" opacity="0.04"/>

  <!-- Thin bottom bezel -->
  <rect x="20" y="288" width="116" height="24" rx="3" fill="#141c28"/>

  <!-- FPC / ZIF connector tab at bottom -->
  <rect x="46" y="310" width="64" height="8" rx="2" fill="#0d1520" stroke="#1e3a5a" stroke-width="1"/>
  <rect x="50" y="311" width="4" height="6" rx="1" fill="#b8860b" opacity="0.8"/>
  <rect x="57" y="311" width="4" height="6" rx="1" fill="#b8860b" opacity="0.8"/>
  <rect x="64" y="311" width="4" height="6" rx="1" fill="#b8860b" opacity="0.8"/>
  <rect x="71" y="311" width="4" height="6" rx="1" fill="#b8860b" opacity="0.8"/>
  <rect x="78" y="311" width="4" height="6" rx="1" fill="#b8860b" opacity="0.8"/>
  <rect x="85" y="311" width="4" height="6" rx="1" fill="#b8860b" opacity="0.8"/>
  <rect x="92" y="311" width="4" height="6" rx="1" fill="#b8860b" opacity="0.8"/>
  <rect x="99" y="311" width="4" height="6" rx="1" fill="#b8860b" opacity="0.8"/>
  <text x="78" y="327" text-anchor="middle" fill="#4a7a9a" font-size="7">FPC CONNECTOR</text>

  <!-- (DSI signal enters via FPC connector at panel bottom) -->

  <!-- Panel label -->
  <text x="78" y="348" text-anchor="middle" fill="#00c8ff" font-size="11" font-weight="bold">DSI PANEL</text>
  <text x="78" y="361" text-anchor="middle" fill="#7dd3fc" font-size="9">MIPI Touch Display · Portrait</text>

  <!-- ======== HDMI CABLE (going right, angled up to monitor center) ======== -->
  <path d="M 609 250 C 650 250 670 230 700 220" stroke="#ff6b00" stroke-width="10" fill="none" opacity="0.2"/>
  <path d="M 609 250 C 650 250 670 230 700 220" stroke="#ff6b00" stroke-width="2.5" fill="none" opacity="0.9" filter="url(#glowOrange)"/>
  <path d="M 609 246 C 650 246 670 226 700 216" stroke="#cc5500" stroke-width="1" fill="none" opacity="0.5"/>
  <path d="M 609 254 C 650 254 670 234 700 224" stroke="#cc5500" stroke-width="1" fill="none" opacity="0.5"/>
  <!-- HDMI label on cable -->
  <text x="655" y="237" text-anchor="middle" fill="#ff6b00" font-size="10" font-weight="bold" filter="url(#glowOrange)">HDMI</text>
  <text x="655" y="249" text-anchor="middle" fill="#fed7aa" font-size="8">Type-A · 4K</text>

  <!-- ======== REALISTIC WIDESCREEN MONITOR (right) ======== -->

  <!-- Monitor outer housing / back panel (slight 3D depth effect) -->
  <rect x="700" y="100" width="188" height="122" rx="6" fill="#1c1c1e" stroke="#2a2a2e" stroke-width="1.5"/>

  <!-- Monitor front bezel (thin modern bezel) -->
  <rect x="700" y="100" width="188" height="122" rx="6" fill="#232325" stroke="#3a3a3e" stroke-width="1"/>

  <!-- Screen glass (slightly inset) -->
  <rect x="705" y="105" width="178" height="108" rx="3" fill="#070d14"/>

  <!-- Screen active area with slight vignette -->
  <rect x="706" y="106" width="176" height="106" rx="2" fill="#0a1520"/>

  <!-- Screen content: desktop-like UI -->
  <!-- Wallpaper gradient background -->
  <rect x="706" y="106" width="176" height="106" rx="2" fill="#0d1b2a"/>
  <!-- Top taskbar -->
  <rect x="706" y="106" width="176" height="12" fill="#111c2b"/>
  <rect x="708" y="109" width="20" height="6" rx="1" fill="#1e3a5f" opacity="0.8"/>
  <rect x="732" y="109" width="14" height="6" rx="1" fill="#1e3a5f" opacity="0.6"/>
  <rect x="750" y="109" width="14" height="6" rx="1" fill="#1e3a5f" opacity="0.6"/>
  <!-- Clock area right side of taskbar -->
  <rect x="856" y="109" width="22" height="6" rx="1" fill="#1e3a5f" opacity="0.5"/>

  <!-- Main content area -->
  <!-- Left sidebar -->
  <rect x="706" y="118" width="28" height="94" fill="#0d1520"/>
  <rect x="710" y="122" width="20" height="6" rx="2" fill="#1a3a5a" opacity="0.7"/>
  <rect x="710" y="132" width="20" height="6" rx="2" fill="#1a3a5a" opacity="0.5"/>
  <rect x="710" y="142" width="20" height="6" rx="2" fill="#1a3a5a" opacity="0.5"/>
  <rect x="710" y="152" width="20" height="6" rx="2" fill="#ff6b00" opacity="0.5"/>
  <rect x="710" y="162" width="20" height="6" rx="2" fill="#1a3a5a" opacity="0.5"/>
  <rect x="710" y="172" width="20" height="6" rx="2" fill="#1a3a5a" opacity="0.4"/>
  <rect x="710" y="185" width="20" height="6" rx="2" fill="#1a3a5a" opacity="0.4"/>
  <rect x="710" y="195" width="20" height="6" rx="2" fill="#1a3a5a" opacity="0.4"/>

  <!-- Main panel -->
  <rect x="736" y="118" width="146" height="94" fill="#0a1828"/>
  <!-- Content cards -->
  <rect x="739" y="121" width="66" height="40" rx="2" fill="#0f2035"/>
  <rect x="742" y="124" width="40" height="5" rx="1" fill="#ff6b00" opacity="0.6"/>
  <rect x="742" y="132" width="58" height="3" rx="1" fill="#5a8ab0" opacity="0.5"/>
  <rect x="742" y="137" width="50" height="3" rx="1" fill="#5a8ab0" opacity="0.4"/>
  <rect x="742" y="142" width="55" height="3" rx="1" fill="#5a8ab0" opacity="0.3"/>
  <rect x="742" y="149" width="30" height="8" rx="2" fill="#1a4a7a" opacity="0.7"/>

  <rect x="810" y="121" width="68" height="40" rx="2" fill="#0f2035"/>
  <rect x="813" y="124" width="35" height="5" rx="1" fill="#4ade80" opacity="0.5"/>
  <rect x="813" y="132" width="60" height="3" rx="1" fill="#5a8ab0" opacity="0.5"/>
  <rect x="813" y="137" width="52" height="3" rx="1" fill="#5a8ab0" opacity="0.4"/>
  <!-- mini bar chart -->
  <rect x="815" y="149" width="6" height="10" rx="1" fill="#4ade80" opacity="0.6"/>
  <rect x="824" y="153" width="6" height="6" rx="1" fill="#4ade80" opacity="0.5"/>
  <rect x="833" y="147" width="6" height="12" rx="1" fill="#4ade80" opacity="0.7"/>
  <rect x="842" y="151" width="6" height="8" rx="1" fill="#4ade80" opacity="0.5"/>
  <rect x="851" y="145" width="6" height="14" rx="1" fill="#ff6b00" opacity="0.6"/>
  <rect x="860" y="150" width="6" height="9" rx="1" fill="#4ade80" opacity="0.5"/>

  <!-- Bottom content row -->
  <rect x="739" y="166" width="140" height="18" rx="2" fill="#0f2035"/>
  <rect x="742" y="169" width="25" height="4" rx="1" fill="#ff6b00" opacity="0.4"/>
  <rect x="742" y="175" width="130" height="3" rx="1" fill="#1e3a5f" opacity="0.6"/>

  <rect x="739" y="187" width="66" height="22" rx="2" fill="#0f2035"/>
  <rect x="742" y="190" width="45" height="4" rx="1" fill="#5a8ab0" opacity="0.5"/>
  <rect x="742" y="196" width="55" height="3" rx="1" fill="#5a8ab0" opacity="0.3"/>
  <rect x="742" y="202" width="48" height="3" rx="1" fill="#5a8ab0" opacity="0.3"/>

  <rect x="810" y="187" width="68" height="22" rx="2" fill="#0f2035"/>
  <rect x="813" y="190" width="45" height="4" rx="1" fill="#5a8ab0" opacity="0.5"/>
  <rect x="813" y="196" width="55" height="3" rx="1" fill="#5a8ab0" opacity="0.3"/>
  <rect x="813" y="202" width="48" height="3" rx="1" fill="#5a8ab0" opacity="0.3"/>

  <!-- Screen subtle reflection glare -->
  <rect x="707" y="107" width="80" height="2" rx="1" fill="white" opacity="0.03"/>

  <!-- Bottom bezel (slightly thicker, more realistic) -->
  <rect x="700" y="222" width="188" height="8" rx="3" fill="#1e1e20"/>
  <!-- Manufacturer logo dot (power LED) -->
  <circle cx="794" cy="226" r="2" fill="#ff6b00" opacity="0.8" filter="url(#glowOrange)"/>
  <!-- Brand name -->
  <text x="794" y="228" text-anchor="middle" fill="#444" font-size="0">·</text>

  <!-- HDMI port on back-bottom of monitor (trapezoid shape) -->
  <polygon points="700,218 700,224 710,224 710,218" fill="#222" stroke="#444" stroke-width="0.5"/>
  <!-- HDMI port slot -->
  <rect x="701" y="219" width="8" height="4" rx="1" fill="#111" stroke="#555" stroke-width="0.5"/>

  <!-- Monitor neck / arm -->
  <rect x="782" y="230" width="24" height="38" rx="3" fill="#252528"/>
  <!-- Neck highlight -->
  <rect x="784" y="230" width="4" height="38" rx="2" fill="#2e2e32" opacity="0.6"/>
  <!-- VESA mount detail -->
  <rect x="786" y="238" width="12" height="10" rx="1" fill="#1a1a1c" stroke="#333" stroke-width="0.5"/>
  <circle cx="789" cy="241" r="1" fill="#444"/>
  <circle cx="795" cy="241" r="1" fill="#444"/>
  <circle cx="789" cy="246" r="1" fill="#444"/>
  <circle cx="795" cy="246" r="1" fill="#444"/>

  <!-- Monitor base (wide elliptical foot) -->
  <ellipse cx="794" cy="275" rx="52" ry="8" fill="#1e1e20" stroke="#2a2a2e" stroke-width="1"/>
  <ellipse cx="794" cy="273" rx="48" ry="5" fill="#252528"/>
  <!-- Base highlight -->
  <ellipse cx="785" cy="272" rx="20" ry="2" fill="#333" opacity="0.4"/>

  <!-- Monitor label below -->
  <text x="794" y="295" text-anchor="middle" fill="#ff6b00" font-size="11" font-weight="bold">HDMI MONITOR</text>
  <text x="794" y="308" text-anchor="middle" fill="#fed7aa" font-size="8">Widescreen · External Display</text>

  <!-- HDMI cable connector meeting monitor port -->
  <polygon points="700,218 700,224 710,224 710,218" fill="#333" stroke="#ff6b00" stroke-width="0.8" filter="url(#glowOrange)"/>

  <!-- ======== SIGNAL FLOW ARROWS ======== -->
  <!-- DSI arrow pointing down into FPC connector -->
  <polygon points="78,310 73,300 83,300" fill="#00c8ff" filter="url(#glowBlue)"/>
  <!-- HDMI arrow pointing into monitor port -->
  <polygon points="702,221 712,218 712,224" fill="#ff6b00" filter="url(#glowOrange)"/>

  <!-- ======== LEGEND ======== -->
  <rect x="20" y="440" width="240" height="50" rx="4" fill="#0a0f18" stroke="#1e293b" stroke-width="1"/>
  <line x1="35" y1="458" x2="75" y2="458" stroke="#00c8ff" stroke-width="2.5"/>
  <text x="82" y="462" fill="#7dd3fc" font-size="9">DSI (MIPI Display Serial Interface)</text>
  <line x1="35" y1="474" x2="75" y2="474" stroke="#ff6b00" stroke-width="2.5"/>
  <text x="82" y="478" fill="#fed7aa" font-size="9">HDMI (High-Def Multimedia Interface)</text>

  <!-- ======== SPECS BOX ======== -->
  <rect x="640" y="440" width="240" height="50" rx="4" fill="#0a0f18" stroke="#1e293b" stroke-width="1"/>
  <text x="760" y="456" text-anchor="middle" fill="#86efac" font-size="9" font-weight="bold">HiKey970 · Kirin 970 · 6GB LPDDR4</text>
  <text x="760" y="468" text-anchor="middle" fill="#4ade80" font-size="8">Dual Display Output: DSI + HDMI</text>
  <text x="760" y="480" text-anchor="middle" fill="#4ade80" font-size="8">Simultaneous independent display support</text>

</svg>
