<svg xmlns="http://www.w3.org/2000/svg" viewBox="0 0 1060 540" width="1060" height="540" font-family="'Courier New', monospace">
<defs>
  <pattern id="grid" width="30" height="30" patternUnits="userSpaceOnUse">
    <path d="M 30 0 L 0 0 0 30" fill="none" stroke="#1a2332" stroke-width="0.5"/>
  </pattern>
  <linearGradient id="boardGrad" x1="0%" y1="0%" x2="100%" y2="100%">
    <stop offset="0%" style="stop-color:#1a3a2a"/><stop offset="100%" style="stop-color:#0d2218"/>
  </linearGradient>
  <linearGradient id="chipGrad" x1="0%" y1="0%" x2="100%" y2="100%">
    <stop offset="0%" style="stop-color:#1a1a2e"/><stop offset="100%" style="stop-color:#0d0d1e"/>
  </linearGradient>
  <filter id="glowBlue">
    <feGaussianBlur stdDeviation="3" result="b"/><feMerge><feMergeNode in="b"/><feMergeNode in="SourceGraphic"/></feMerge>
  </filter>
  <filter id="glowOrange">
    <feGaussianBlur stdDeviation="3" result="b"/><feMerge><feMergeNode in="b"/><feMergeNode in="SourceGraphic"/></feMerge>
  </filter>
  <filter id="glowGreen">
    <feGaussianBlur stdDeviation="5" result="b"/><feMerge><feMergeNode in="b"/><feMergeNode in="SourceGraphic"/></feMerge>
  </filter>
  <filter id="glowYellow">
    <feGaussianBlur stdDeviation="3" result="b"/><feMerge><feMergeNode in="b"/><feMergeNode in="SourceGraphic"/></feMerge>
  </filter>
  <filter id="glowPurple">
    <feGaussianBlur stdDeviation="3" result="b"/><feMerge><feMergeNode in="b"/><feMergeNode in="SourceGraphic"/></feMerge>
  </filter>
  <marker id="arrowOrange" markerWidth="7" markerHeight="5" refX="6" refY="2.5" orient="auto">
    <polygon points="0 0,7 2.5,0 5" fill="#ff6b00"/>
  </marker>
</defs>

<rect width="1060" height="540" fill="#0d1117"/>
<rect width="1060" height="540" fill="url(#grid)"/>

<!-- Title -->
<text x="530" y="36" text-anchor="middle" fill="#4ade80" font-size="17" font-weight="bold" letter-spacing="3">HiKey970 DISPLAY CONNECTION DIAGRAM</text>
<line x1="160" y1="46" x2="900" y2="46" stroke="#4ade80" stroke-width="0.5" opacity="0.4"/>

<!-- ============================================================
     SBC PCB BOARD
     ============================================================ -->
<rect x="290" y="130" width="440" height="230" rx="8" fill="url(#boardGrad)" stroke="#2d6a4f" stroke-width="2" filter="url(#glowGreen)"/>
<!-- PCB traces -->
<line x1="310" y1="150" x2="710" y2="150" stroke="#1a4a30" stroke-width="1"/>
<line x1="310" y1="340" x2="710" y2="340" stroke="#1a4a30" stroke-width="1"/>
<line x1="310" y1="160" x2="420" y2="160" stroke="#1a4a30" stroke-width="1"/>
<!-- Board label -->
<text x="510" y="148" text-anchor="middle" fill="#86efac" font-size="12" font-weight="bold" letter-spacing="2">SBC · HiKey970</text>

<!-- ── Kirin 970 SoC ── -->
<rect x="355" y="168" width="150" height="120" rx="4" fill="#0a1a10" stroke="#3d8b5c" stroke-width="1.5"/>
<text x="430" y="218" text-anchor="middle" fill="#4ade80" font-size="11" font-weight="bold">Kirin 970</text>
<text x="430" y="234" text-anchor="middle" fill="#22c55e" font-size="9">SoC</text>
<!-- SoC pin decorations left -->
<rect x="349" y="176" width="6" height="3" fill="#4ade80" rx="1"/>
<rect x="349" y="183" width="6" height="3" fill="#4ade80" rx="1"/>
<rect x="349" y="190" width="6" height="3" fill="#4ade80" rx="1"/>
<rect x="349" y="197" width="6" height="3" fill="#4ade80" rx="1"/>
<!-- SoC pin decorations right -->
<rect x="505" y="176" width="6" height="3" fill="#4ade80" rx="1"/>
<rect x="505" y="183" width="6" height="3" fill="#4ade80" rx="1"/>
<rect x="505" y="190" width="6" height="3" fill="#4ade80" rx="1"/>
<rect x="505" y="197" width="6" height="3" fill="#4ade80" rx="1"/>
<!-- SoC DSI-1 label (left port, to panel) -->
<text x="358" y="264" fill="#00c8ff" font-size="7">DSI-1</text>
<!-- SoC DSI-2 label (right port, to ADV7533) -->
<text x="470" y="264" fill="#a78bfa" font-size="7">DSI-2</text>

<!-- ── DSI-1 connector on SoC left side (to panel) ── -->
<rect x="275" y="214" width="18" height="56" rx="3" fill="#005588" stroke="#00c8ff" stroke-width="1.5" filter="url(#glowBlue)"/>
<text x="284" y="240" text-anchor="middle" fill="#00c8ff" font-size="7" font-weight="bold" transform="rotate(-90,284,240)">DSI-1</text>
<rect x="271" y="218" width="5" height="3" fill="#00c8ff" rx="1"/>
<rect x="271" y="225" width="5" height="3" fill="#00c8ff" rx="1"/>
<rect x="271" y="232" width="5" height="3" fill="#00c8ff" rx="1"/>
<rect x="271" y="239" width="5" height="3" fill="#00c8ff" rx="1"/>
<rect x="271" y="246" width="5" height="3" fill="#00c8ff" rx="1"/>
<rect x="271" y="253" width="5" height="3" fill="#00c8ff" rx="1"/>
<rect x="271" y="260" width="5" height="3" fill="#00c8ff" rx="1"/>

<!-- ── DSI-2 connector on SoC right side (to ADV7533) ── -->
<rect x="507" y="214" width="18" height="46" rx="3" fill="#2d1b5a" stroke="#a78bfa" stroke-width="1.5" filter="url(#glowPurple)"/>
<text x="516" y="237" text-anchor="middle" fill="#a78bfa" font-size="7" font-weight="bold" transform="rotate(-90,516,237)">DSI-2</text>
<rect x="524" y="218" width="5" height="3" fill="#a78bfa" rx="1"/>
<rect x="524" y="225" width="5" height="3" fill="#a78bfa" rx="1"/>
<rect x="524" y="232" width="5" height="3" fill="#a78bfa" rx="1"/>
<rect x="524" y="239" width="5" height="3" fill="#a78bfa" rx="1"/>
<rect x="524" y="246" width="5" height="3" fill="#a78bfa" rx="1"/>

<!-- ── ADV7533 Bridge Chip ── -->
<rect x="560" y="186" width="126" height="88" rx="4" fill="url(#chipGrad)" stroke="#f59e0b" stroke-width="1.8" filter="url(#glowYellow)"/>
<!-- chip header bar -->
<rect x="560" y="186" width="126" height="18" rx="4" fill="#292524" opacity="0.9"/>
<rect x="560" y="195" width="126" height="9" rx="0" fill="#292524" opacity="0.9"/>
<text x="623" y="199" text-anchor="middle" fill="#fbbf24" font-size="9" font-weight="bold">ADV7533</text>
<text x="623" y="212" text-anchor="middle" fill="#fde68a" font-size="7.5">MIPI DSI → HDMI Encoder</text>
<text x="623" y="224" text-anchor="middle" fill="#fcd34d" font-size="7">Analog Devices</text>
<!-- internal block labels -->
<rect x="568" y="230" width="44" height="16" rx="2" fill="#1a1600" stroke="#b45309" stroke-width="0.8"/>
<text x="590" y="241" text-anchor="middle" fill="#f59e0b" font-size="6.5">DSI Rx</text>
<rect x="620" y="230" width="44" height="16" rx="2" fill="#1a1600" stroke="#b45309" stroke-width="0.8"/>
<text x="642" y="241" text-anchor="middle" fill="#f59e0b" font-size="6.5">HDMI Tx</text>
<!-- internal arrow between blocks -->
<line x1="612" y1="238" x2="620" y2="238" stroke="#f59e0b" stroke-width="1" marker-end="url(#arrowOrange)"/>
<!-- ADV7533 chip pins left (DSI input side) -->
<rect x="554" y="222" width="6" height="2.5" fill="#a78bfa" rx="1"/>
<rect x="554" y="228" width="6" height="2.5" fill="#a78bfa" rx="1"/>
<rect x="554" y="234" width="6" height="2.5" fill="#a78bfa" rx="1"/>
<rect x="554" y="240" width="6" height="2.5" fill="#a78bfa" rx="1"/>
<!-- ADV7533 chip pins right (HDMI output side) -->
<rect x="686" y="222" width="6" height="2.5" fill="#ff6b00" rx="1"/>
<rect x="686" y="228" width="6" height="2.5" fill="#ff6b00" rx="1"/>
<rect x="686" y="234" width="6" height="2.5" fill="#ff6b00" rx="1"/>
<rect x="686" y="240" width="6" height="2.5" fill="#ff6b00" rx="1"/>
<!-- I2C label (SoC controls ADV7533 via I2C) -->
<text x="623" y="264" text-anchor="middle" fill="#6b7280" font-size="6.5" font-style="italic">ctrl: I²C from SoC</text>

<!-- ── HDMI connector on board edge (output of ADV7533) ── -->
<rect x="725" y="222" width="16" height="26" rx="3" fill="#1a0a00" stroke="#ff6b00" stroke-width="1.5" filter="url(#glowOrange)"/>
<text x="733" y="236" text-anchor="middle" fill="#ff6b00" font-size="6" font-weight="bold" transform="rotate(-90,733,236)">HDMI</text>
<rect x="740" y="225" width="5" height="2.5" fill="#ff6b00" rx="1"/>
<rect x="740" y="230" width="5" height="2.5" fill="#ff6b00" rx="1"/>
<rect x="740" y="235" width="5" height="2.5" fill="#ff6b00" rx="1"/>
<rect x="740" y="240" width="5" height="2.5" fill="#ff6b00" rx="1"/>

<!-- PCB trace: DSI-2 connector → ADV7533 DSI Rx (purple trace on board) -->
<line x1="529" y1="232" x2="554" y2="232" stroke="#a78bfa" stroke-width="2.5" opacity="0.8" filter="url(#glowPurple)"/>
<line x1="529" y1="236" x2="554" y2="236" stroke="#7c3aed" stroke-width="1" opacity="0.5"/>
<line x1="529" y1="228" x2="554" y2="228" stroke="#7c3aed" stroke-width="1" opacity="0.5"/>

<!-- PCB trace: ADV7533 HDMI Tx → HDMI connector (orange trace on board) -->
<line x1="692" y1="232" x2="725" y2="232" stroke="#ff6b00" stroke-width="2.5" opacity="0.8" filter="url(#glowOrange)"/>
<line x1="692" y1="236" x2="725" y2="236" stroke="#cc5500" stroke-width="1" opacity="0.5"/>
<line x1="692" y1="228" x2="725" y2="228" stroke="#cc5500" stroke-width="1" opacity="0.5"/>

<!-- I2C trace (dashed gray, SoC → ADV7533) -->
<line x1="505" y1="280" x2="560" y2="280" stroke="#6b7280" stroke-width="1" stroke-dasharray="3,3"/>
<line x1="560" y1="280" x2="560" y2="260" stroke="#6b7280" stroke-width="1" stroke-dasharray="3,3"/>
<line x1="560" y1="260" x2="585" y2="260" stroke="#6b7280" stroke-width="1" stroke-dasharray="3,3"/>

<!-- ============================================================
     DSI FPC CABLE to Panel (left)
     ============================================================ -->
<!-- glow body -->
<path d="M 271 236 C 215 236 185 250 155 270 C 130 288 115 295 78 310" stroke="#00c8ff" stroke-width="14" fill="none" opacity="0.13"/>
<!-- main ribbon -->
<path d="M 271 234 C 215 234 185 248 155 268 C 130 286 115 293 78 308" stroke="#00c8ff" stroke-width="2.8" fill="none" opacity="0.95" filter="url(#glowBlue)"/>
<!-- parallel traces -->
<path d="M 271 230 C 215 230 185 244 155 264 C 130 282 115 289 78 304" stroke="#0099dd" stroke-width="1.2" fill="none" opacity="0.5"/>
<path d="M 271 238 C 215 238 185 252 155 272 C 130 290 115 297 78 312" stroke="#0099dd" stroke-width="1.2" fill="none" opacity="0.5"/>
<path d="M 271 242 C 215 242 185 256 155 276 C 130 294 115 301 78 316" stroke="#005f99" stroke-width="1.0" fill="none" opacity="0.3"/>
<!-- label -->
<text x="185" y="247" text-anchor="middle" fill="#00c8ff" font-size="9" font-weight="bold" filter="url(#glowBlue)">DSI-1</text>
<text x="185" y="258" text-anchor="middle" fill="#7dd3fc" font-size="7.5">MIPI · 4-Lane FPC</text>
<!-- arrow into FPC tab -->
<polygon points="78,308 73,298 83,298" fill="#00c8ff" filter="url(#glowBlue)"/>

<!-- ============================================================
     HDMI CABLE (board edge → monitor)
     ============================================================ -->
<!-- glow -->
<path d="M 745 232 C 790 232 800 220 830 220" stroke="#ff6b00" stroke-width="10" fill="none" opacity="0.18"/>
<!-- main cable -->
<path d="M 745 232 C 790 232 800 220 830 220" stroke="#ff6b00" stroke-width="2.5" fill="none" opacity="0.9" filter="url(#glowOrange)"/>
<path d="M 745 228 C 790 228 800 216 830 216" stroke="#cc5500" stroke-width="1" fill="none" opacity="0.5"/>
<path d="M 745 236 C 790 236 800 224 830 224" stroke="#cc5500" stroke-width="1" fill="none" opacity="0.5"/>
<!-- label -->
<text x="792" y="212" text-anchor="middle" fill="#ff6b00" font-size="9" font-weight="bold" filter="url(#glowOrange)">HDMI</text>
<text x="792" y="222" text-anchor="middle" fill="#fed7aa" font-size="7.5">Type-A · 4K</text>
<!-- arrow into monitor port -->
<polygon points="832,220 822,215 822,225" fill="#ff6b00" filter="url(#glowOrange)"/>

<!-- ============================================================
     DSI TOUCH PANEL (left)
     ============================================================ -->
<!-- PCB backing -->
<rect x="22" y="93" width="116" height="222" rx="5" fill="#141a22" stroke="#1e2a38" stroke-width="1"/>
<!-- front housing -->
<rect x="20" y="90" width="116" height="222" rx="5" fill="#1a2230" stroke="#2a3a50" stroke-width="1.5"/>
<!-- top bezel -->
<rect x="20" y="90" width="116" height="8" rx="5" fill="#141c28"/>
<!-- screen glass -->
<rect x="22" y="98" width="112" height="190" rx="2" fill="#050b12"/>
<!-- active area -->
<rect x="23" y="99" width="110" height="188" rx="2" fill="#071524"/>
<!-- status bar -->
<rect x="23" y="99" width="110" height="10" fill="#060f1c"/>
<rect x="26" y="102" width="16" height="4" rx="1" fill="#a0c4e0" opacity="0.7"/>
<rect x="110" y="102" width="8" height="4" rx="1" fill="#a0c4e0" opacity="0.5"/>
<rect x="121" y="102" width="8" height="4" rx="1" fill="#a0c4e0" opacity="0.5"/>
<!-- hero area -->
<rect x="23" y="109" width="110" height="42" fill="#0a1e34"/>
<rect x="23" y="109" width="110" height="42" fill="#0d2a48" opacity="0.6"/>
<rect x="29" y="116" width="60" height="6" rx="2" fill="#00c8ff" opacity="0.75"/>
<rect x="29" y="125" width="80" height="4" rx="1" fill="#7dd3fc" opacity="0.45"/>
<rect x="29" y="132" width="65" height="4" rx="1" fill="#7dd3fc" opacity="0.3"/>
<circle cx="118" cy="125" r="10" fill="#0d3050" stroke="#00c8ff" stroke-width="1" opacity="0.8"/>
<circle cx="118" cy="122" r="4" fill="#00c8ff" opacity="0.4"/>
<rect x="112" y="128" width="12" height="5" rx="2" fill="#00c8ff" opacity="0.3"/>
<!-- cards -->
<rect x="26" y="155" width="48" height="38" rx="3" fill="#0d1f30"/>
<rect x="29" y="159" width="28" height="4" rx="1" fill="#00c8ff" opacity="0.6"/>
<rect x="29" y="166" width="38" height="3" rx="1" fill="#5a8ab0" opacity="0.5"/>
<rect x="29" y="172" width="32" height="3" rx="1" fill="#5a8ab0" opacity="0.4"/>
<rect x="29" y="179" width="20" height="8" rx="2" fill="#00c8ff" opacity="0.35"/>
<rect x="79" y="155" width="54" height="38" rx="3" fill="#0d1f30"/>
<rect x="82" y="159" width="30" height="4" rx="1" fill="#4ade80" opacity="0.55"/>
<rect x="82" y="166" width="44" height="3" rx="1" fill="#5a8ab0" opacity="0.5"/>
<rect x="82" y="172" width="36" height="3" rx="1" fill="#5a8ab0" opacity="0.4"/>
<polyline points="82,184 89,181 96,186 103,179 110,183 117,178 124,180 129,182" stroke="#4ade80" stroke-width="1.2" fill="none" opacity="0.7"/>
<!-- list items -->
<rect x="26" y="197" width="107" height="10" rx="2" fill="#0d1f30"/>
<rect x="29" y="200" width="50" height="3" rx="1" fill="#5a8ab0" opacity="0.55"/>
<rect x="120" y="200" width="10" height="3" rx="1" fill="#00c8ff" opacity="0.4"/>
<rect x="26" y="210" width="107" height="10" rx="2" fill="#0d1f30"/>
<rect x="29" y="213" width="65" height="3" rx="1" fill="#5a8ab0" opacity="0.5"/>
<rect x="120" y="213" width="10" height="3" rx="1" fill="#4ade80" opacity="0.4"/>
<rect x="26" y="223" width="107" height="10" rx="2" fill="#0d1f30"/>
<rect x="29" y="226" width="44" height="3" rx="1" fill="#5a8ab0" opacity="0.45"/>
<rect x="120" y="226" width="10" height="3" rx="1" fill="#00c8ff" opacity="0.4"/>
<!-- bottom nav -->
<rect x="23" y="237" width="110" height="22" fill="#060f1c"/>
<rect x="23" y="237" width="110" height="1" fill="#1a3050" opacity="0.8"/>
<rect x="30" y="243" width="14" height="10" rx="2" fill="#1a3a5a" opacity="0.7"/>
<rect x="54" y="243" width="14" height="10" rx="2" fill="#00c8ff" opacity="0.45"/>
<rect x="78" y="243" width="14" height="10" rx="2" fill="#1a3a5a" opacity="0.7"/>
<rect x="102" y="243" width="14" height="10" rx="2" fill="#1a3a5a" opacity="0.7"/>
<!-- home indicator -->
<rect x="57" y="281" width="42" height="3" rx="2" fill="#3a5a7a" opacity="0.6"/>
<!-- bottom bezel -->
<rect x="20" y="288" width="116" height="24" rx="3" fill="#141c28"/>
<!-- FPC connector -->
<rect x="46" y="310" width="64" height="8" rx="2" fill="#0d1520" stroke="#1e3a5a" stroke-width="1"/>
<rect x="50" y="311" width="4" height="6" rx="1" fill="#b8860b" opacity="0.8"/>
<rect x="57" y="311" width="4" height="6" rx="1" fill="#b8860b" opacity="0.8"/>
<rect x="64" y="311" width="4" height="6" rx="1" fill="#b8860b" opacity="0.8"/>
<rect x="71" y="311" width="4" height="6" rx="1" fill="#b8860b" opacity="0.8"/>
<rect x="78" y="311" width="4" height="6" rx="1" fill="#b8860b" opacity="0.8"/>
<rect x="85" y="311" width="4" height="6" rx="1" fill="#b8860b" opacity="0.8"/>
<rect x="92" y="311" width="4" height="6" rx="1" fill="#b8860b" opacity="0.8"/>
<rect x="99" y="311" width="4" height="6" rx="1" fill="#b8860b" opacity="0.8"/>
<text x="78" y="327" text-anchor="middle" fill="#4a7a9a" font-size="7">FPC CONNECTOR</text>
<!-- panel label -->
<text x="78" y="348" text-anchor="middle" fill="#00c8ff" font-size="10" font-weight="bold">DSI PANEL</text>
<text x="78" y="361" text-anchor="middle" fill="#7dd3fc" font-size="8">MIPI Touch Display</text>

<!-- ============================================================
     WIDESCREEN HDMI MONITOR (right)
     ============================================================ -->
<!-- back panel depth -->
<rect x="832" y="100" width="188" height="122" rx="6" fill="#1c1c1e" stroke="#2a2a2e" stroke-width="1.5"/>
<!-- front bezel -->
<rect x="832" y="100" width="188" height="122" rx="6" fill="#232325" stroke="#3a3a3e" stroke-width="1"/>
<!-- screen glass -->
<rect x="837" y="105" width="178" height="108" rx="3" fill="#070d14"/>
<rect x="838" y="106" width="176" height="106" rx="2" fill="#0d1b2a"/>
<!-- taskbar -->
<rect x="838" y="106" width="176" height="12" fill="#111c2b"/>
<rect x="840" y="109" width="20" height="6" rx="1" fill="#1e3a5f" opacity="0.8"/>
<rect x="864" y="109" width="14" height="6" rx="1" fill="#1e3a5f" opacity="0.6"/>
<rect x="882" y="109" width="14" height="6" rx="1" fill="#1e3a5f" opacity="0.6"/>
<rect x="990" y="109" width="20" height="6" rx="1" fill="#1e3a5f" opacity="0.5"/>
<!-- sidebar -->
<rect x="838" y="118" width="28" height="94" fill="#0d1520"/>
<rect x="842" y="122" width="20" height="6" rx="2" fill="#1a3a5a" opacity="0.7"/>
<rect x="842" y="132" width="20" height="6" rx="2" fill="#1a3a5a" opacity="0.5"/>
<rect x="842" y="142" width="20" height="6" rx="2" fill="#1a3a5a" opacity="0.5"/>
<rect x="842" y="152" width="20" height="6" rx="2" fill="#ff6b00" opacity="0.5"/>
<rect x="842" y="162" width="20" height="6" rx="2" fill="#1a3a5a" opacity="0.4"/>
<!-- main content -->
<rect x="868" y="118" width="146" height="94" fill="#0a1828"/>
<rect x="871" y="121" width="66" height="40" rx="2" fill="#0f2035"/>
<rect x="874" y="124" width="40" height="5" rx="1" fill="#ff6b00" opacity="0.6"/>
<rect x="874" y="132" width="58" height="3" rx="1" fill="#5a8ab0" opacity="0.5"/>
<rect x="874" y="137" width="50" height="3" rx="1" fill="#5a8ab0" opacity="0.4"/>
<rect x="874" y="149" width="30" height="8" rx="2" fill="#1a4a7a" opacity="0.7"/>
<rect x="942" y="121" width="66" height="40" rx="2" fill="#0f2035"/>
<rect x="945" y="124" width="35" height="5" rx="1" fill="#4ade80" opacity="0.5"/>
<rect x="945" y="132" width="60" height="3" rx="1" fill="#5a8ab0" opacity="0.5"/>
<rect x="947" y="149" width="6" height="10" rx="1" fill="#4ade80" opacity="0.6"/>
<rect x="956" y="153" width="6" height="6" rx="1" fill="#4ade80" opacity="0.5"/>
<rect x="965" y="147" width="6" height="12" rx="1" fill="#4ade80" opacity="0.7"/>
<rect x="974" y="145" width="6" height="14" rx="1" fill="#ff6b00" opacity="0.6"/>
<rect x="868" y="166" width="140" height="14" rx="2" fill="#0f2035"/>
<rect x="868" y="184" width="66" height="22" rx="2" fill="#0f2035"/>
<rect x="942" y="184" width="66" height="22" rx="2" fill="#0f2035"/>
<!-- glare -->
<rect x="839" y="107" width="80" height="2" rx="1" fill="white" opacity="0.03"/>
<!-- bottom bezel -->
<rect x="832" y="222" width="188" height="8" rx="3" fill="#1e1e20"/>
<circle cx="926" cy="226" r="2" fill="#ff6b00" opacity="0.8" filter="url(#glowOrange)"/>
<!-- HDMI port on monitor left edge -->
<polygon points="832,216 832,224 842,224 842,216" fill="#222" stroke="#444" stroke-width="0.5"/>
<rect x="833" y="217" width="8" height="6" rx="1" fill="#111" stroke="#555" stroke-width="0.5"/>
<polygon points="832,216 832,224 842,224 842,216" fill="#333" stroke="#ff6b00" stroke-width="0.8" filter="url(#glowOrange)"/>
<!-- neck -->
<rect x="914" y="230" width="24" height="38" rx="3" fill="#252528"/>
<rect x="916" y="230" width="4" height="38" rx="2" fill="#2e2e32" opacity="0.6"/>
<rect x="918" y="238" width="12" height="10" rx="1" fill="#1a1a1c" stroke="#333" stroke-width="0.5"/>
<circle cx="921" cy="241" r="1" fill="#444"/>
<circle cx="927" cy="241" r="1" fill="#444"/>
<circle cx="921" cy="246" r="1" fill="#444"/>
<circle cx="927" cy="246" r="1" fill="#444"/>
<!-- base -->
<ellipse cx="926" cy="275" rx="52" ry="8" fill="#1e1e20" stroke="#2a2a2e" stroke-width="1"/>
<ellipse cx="926" cy="273" rx="48" ry="5" fill="#252528"/>
<ellipse cx="916" cy="272" rx="20" ry="2" fill="#333" opacity="0.4"/>
<!-- monitor label -->
<text x="926" y="295" text-anchor="middle" fill="#ff6b00" font-size="10" font-weight="bold">HDMI MONITOR</text>
<text x="926" y="308" text-anchor="middle" fill="#fed7aa" font-size="8">External Display</text>

<!-- ============================================================
     LEGEND
     ============================================================ -->
<rect x="20" y="458" width="500" height="62" rx="4" fill="#0a0f18" stroke="#1e293b" stroke-width="1"/>
<!-- row 1 -->
<line x1="36" y1="475" x2="70" y2="475" stroke="#00c8ff" stroke-width="2.5"/>
<text x="76" y="479" fill="#7dd3fc" font-size="9">DSI-1  MIPI (SoC → Touch Panel)</text>
<line x1="260" y1="475" x2="294" y2="475" stroke="#a78bfa" stroke-width="2.5"/>
<text x="300" y="479" fill="#c4b5fd" font-size="9">DSI-2  MIPI (SoC → ADV7533 input)</text>
<!-- row 2 -->
<line x1="36" y1="494" x2="70" y2="494" stroke="#ff6b00" stroke-width="2.5"/>
<text x="76" y="498" fill="#fed7aa" font-size="9">HDMI  (ADV7533 output → Monitor)</text>
<line x1="260" y1="494" x2="294" y2="494" stroke="#fbbf24" stroke-width="2.5"/>
<text x="300" y="498" fill="#fde68a" font-size="9">ADV7533  DSI→HDMI bridge chip (Analog Devices)</text>
<!-- row 3 -->
<line x1="36" y1="511" x2="70" y2="511" stroke="#6b7280" stroke-width="1.5" stroke-dasharray="4,3"/>
<text x="76" y="515" fill="#9ca3af" font-size="9">I²C control (SoC → ADV7533 config)</text>

<!-- ============================================================
     SPECS BOX
     ============================================================ -->
<rect x="560" y="458" width="475" height="62" rx="4" fill="#0a0f18" stroke="#1e293b" stroke-width="1"/>
<text x="797" y="474" text-anchor="middle" fill="#86efac" font-size="9" font-weight="bold">HiKey970 · Kirin 970 · 6GB LPDDR4</text>
<text x="797" y="488" text-anchor="middle" fill="#4ade80" font-size="8">Display 1: DSI-1 → Touch Panel (direct MIPI)</text>
<text x="797" y="502" text-anchor="middle" fill="#4ade80" font-size="8">Display 2: DSI-2 → ADV7533 → HDMI Monitor (bridge)</text>
<text x="797" y="516" text-anchor="middle" fill="#22c55e" font-size="8">No native HDMI in Kirin 970 SoC — bridge chip required</text>

</svg>
